<svg width="41" height="41" viewBox="0 0 41 41" fill="none" xmlns="http://www.w3.org/2000/svg">
<g clip-path="url(#clip0_1303_758)">
<path fill-rule="evenodd" clip-rule="evenodd" d="M0.520996 20.2618C0.520996 30.2051 7.74266 38.4735 17.1877 40.1501V25.7051H12.1877V20.1501H17.1877V15.7051C17.1877 10.7051 20.4093 7.92848 24.966 7.92848C26.4093 7.92848 27.966 8.15015 29.4093 8.37181V13.4835H26.8543C24.4093 13.4835 23.8543 14.7051 23.8543 16.2618V20.1501H29.1877L28.2993 25.7051H23.8543V40.1501C33.2993 38.4735 40.521 30.2068 40.521 20.2618C40.521 9.20015 31.521 0.150146 20.521 0.150146C9.521 0.150146 0.520996 9.20015 0.520996 20.2618Z" fill="#333333"/>
</g>
<defs>
<clipPath id="clip0_1303_758">
<rect width="40" height="40" fill="white" transform="translate(0.520996 0.150146)"/>
</clipPath>
</defs>
</svg>
