<svg width="41" height="41" viewBox="0 0 41 41" fill="none" xmlns="http://www.w3.org/2000/svg">
<g clip-path="url(#clip0_1303_762)">
<path d="M20.5208 0.950195C9.9168 0.950195 1.3208 9.5462 1.3208 20.1502C1.3208 30.7542 9.9168 39.3502 20.5208 39.3502C31.1248 39.3502 39.7208 30.7542 39.7208 20.1502C39.7208 9.5462 31.1248 0.950195 20.5208 0.950195ZM28.3308 16.6782C28.3388 16.8422 28.3408 17.0062 28.3408 17.1662C28.3408 22.1662 24.5388 27.9282 17.5828 27.9282C15.5274 27.9316 13.5147 27.3413 11.7868 26.2282C12.0808 26.2642 12.3828 26.2782 12.6888 26.2782C14.4608 26.2782 16.0908 25.6762 17.3848 24.6602C16.5962 24.6447 15.8321 24.3836 15.199 23.9132C14.5659 23.4429 14.0953 22.7867 13.8528 22.0362C14.4191 22.1439 15.0025 22.1213 15.5588 21.9702C14.7029 21.7971 13.9332 21.3333 13.3802 20.6575C12.8272 19.9817 12.525 19.1354 12.5248 18.2622V18.2162C13.0348 18.4982 13.6188 18.6702 14.2388 18.6902C13.4364 18.1561 12.8684 17.3355 12.6509 16.3965C12.4334 15.4574 12.5829 14.4707 13.0688 13.6382C14.0187 14.8062 15.2033 15.7617 16.5459 16.4428C17.8886 17.1239 19.3592 17.5155 20.8628 17.5922C20.6716 16.7808 20.7539 15.929 21.0968 15.1692C21.4397 14.4094 22.024 13.7842 22.7589 13.3907C23.4938 12.9973 24.3381 12.8576 25.1606 12.9935C25.983 13.1294 26.7375 13.5332 27.3068 14.1422C28.1531 13.9747 28.9648 13.6643 29.7068 13.2242C29.4247 14.1005 28.8342 14.8445 28.0448 15.3182C28.7945 15.2279 29.5265 15.0264 30.2168 14.7202C29.7098 15.48 29.0711 16.1431 28.3308 16.6782Z" fill="#333333"/>
</g>
<defs>
<clipPath id="clip0_1303_762">
<rect width="40" height="40" fill="white" transform="translate(0.520996 0.150146)"/>
</clipPath>
</defs>
</svg>
