<svg width="41" height="41" viewBox="0 0 41 41" fill="none" xmlns="http://www.w3.org/2000/svg">
<g clip-path="url(#clip0_1303_760)">
<path d="M20.5208 0.950195C9.9168 0.950195 1.3208 9.5462 1.3208 20.1502C1.3208 30.7542 9.9168 39.3502 20.5208 39.3502C31.1248 39.3502 39.7208 30.7542 39.7208 20.1502C39.7208 9.5462 31.1248 0.950195 20.5208 0.950195ZM15.8208 28.1082H11.9328V15.5962H15.8208V28.1082ZM13.8528 14.0602C12.6248 14.0602 11.8308 13.1902 11.8308 12.1142C11.8308 11.0162 12.6488 10.1722 13.9028 10.1722C15.1568 10.1722 15.9248 11.0162 15.9488 12.1142C15.9488 13.1902 15.1568 14.0602 13.8528 14.0602ZM30.0208 28.1082H26.1328V21.1742C26.1328 19.5602 25.5688 18.4642 24.1628 18.4642C23.0888 18.4642 22.4508 19.2062 22.1688 19.9202C22.0648 20.1742 22.0388 20.5342 22.0388 20.8922V28.1062H18.1488V19.5862C18.1488 18.0242 18.0988 16.7182 18.0468 15.5942H21.4248L21.6028 17.3322H21.6808C22.1928 16.5162 23.4468 15.3122 25.5448 15.3122C28.1028 15.3122 30.0208 17.0262 30.0208 20.7102V28.1082Z" fill="#333333"/>
</g>
<defs>
<clipPath id="clip0_1303_760">
<rect width="40" height="40" fill="white" transform="translate(0.520996 0.150146)"/>
</clipPath>
</defs>
</svg>
