<svg width="17" height="96" viewBox="0 0 17 96" fill="none" xmlns="http://www.w3.org/2000/svg">
<path d="M8.26367 65.6462L8.26367 78.4081" stroke="white" stroke-width="1.36735" stroke-linecap="round"/>
<path d="M8.26367 82.0544L8.26367 87.068" stroke="white" stroke-width="1.36735" stroke-linecap="round"/>
<path d="M8.26367 90.2585L8.26367 95.2722" stroke="white" stroke-width="1.36735" stroke-linecap="round"/>
<path d="M4.46914 58.1843L6.51017 58.3278H7.70608V56.797L7.54663 55.2822L8.74254 55.4097V58.3278H9.85873L13 58.1045V59.8904L9.84278 59.6672H6.49422L3.35295 59.8904L3.35295 54.4849L4.66048 54.6284L4.46914 56.4143V58.1843ZM13.2392 50.2362C13.2392 51.2248 12.9256 51.9955 12.2984 52.5483C11.6712 53.0904 10.7783 53.3615 9.61955 53.3615C8.45021 53.3615 7.51473 53.0692 6.81313 52.4845C6.11153 51.8998 5.76073 51.1132 5.76073 50.1245C5.76073 49.1253 6.07432 48.3546 6.70151 47.8124C7.31807 47.2597 8.21102 46.9833 9.38036 46.9833C10.5391 46.9833 11.4745 47.2756 12.1868 47.8603C12.8884 48.445 13.2392 49.2369 13.2392 50.2362ZM12.2665 49.997C12.2665 49.6781 12.2134 49.3379 12.107 48.9765C11.6074 48.6257 10.8208 48.4503 9.74711 48.4503C8.66281 48.4503 7.89211 48.6097 7.43501 48.9286C6.96727 49.2369 6.7334 49.7206 6.7334 50.3797C6.7334 50.6242 6.78656 50.9537 6.89286 51.3683C7.38186 51.7191 8.1685 51.8945 9.2528 51.8945C10.3371 51.8945 11.1131 51.7457 11.5808 51.448C12.038 51.1397 12.2665 50.6561 12.2665 49.997ZM13 45.1336L9.84278 44.9104H3.95888L2.31649 45.1495L2.15703 43.4274L5.28236 43.6028H9.85873L13 43.4274V45.1336ZM13 41.2718L9.84278 41.0485H3.95888L2.31649 41.2877L2.15703 39.5656L5.28236 39.741H9.85873L13 39.5656V41.2718ZM13.2392 34.5398C13.2392 35.5284 12.9256 36.2991 12.2984 36.8519C11.6712 37.394 10.7783 37.6651 9.61955 37.6651C8.45021 37.6651 7.51473 37.3728 6.81313 36.7881C6.11153 36.2034 5.76073 35.4168 5.76073 34.4282C5.76073 33.4289 6.07432 32.6582 6.70151 32.1161C7.31807 31.5633 8.21102 31.2869 9.38036 31.2869C10.5391 31.2869 11.4745 31.5792 12.1868 32.1639C12.8884 32.7486 13.2392 33.5405 13.2392 34.5398ZM12.2665 34.3006C12.2665 33.9817 12.2134 33.6415 12.107 33.2801C11.6074 32.9293 10.8208 32.7539 9.74711 32.7539C8.66281 32.7539 7.89211 32.9133 7.43501 33.2322C6.96727 33.5405 6.7334 34.0242 6.7334 34.6833C6.7334 34.9278 6.78656 35.2573 6.89286 35.6719C7.38186 36.0227 8.1685 36.1981 9.2528 36.1981C10.3371 36.1981 11.1131 36.0493 11.5808 35.7516C12.038 35.4434 12.2665 34.9597 12.2665 34.3006ZM13.0797 27.7629L5.99991 30.1707L5.88829 28.4805L7.33933 28.2891L11.7562 26.9975L7.59446 25.5784L5.98396 26.0727L5.88829 24.4303L7.33933 24.2709L11.5649 23.1866L7.57852 21.7674L5.99991 21.592V19.9337L12.9841 22.7082L13.0797 23.9041L9.18902 25.1L12.9841 26.4873L13.0797 27.7629ZM8.80632 14.9331H6.49422L3.35295 15.1564L3.35295 13.2269L6.51017 13.4342H8.21634C9.58765 13.4342 10.571 13.2642 11.1663 12.924C11.7509 12.5732 12.0433 11.9885 12.0433 11.17C12.0433 10.3408 11.7828 9.74019 11.2619 9.36813C10.741 8.98543 9.89594 8.79409 8.7266 8.79409H6.51017L3.35295 9.00138L3.35295 7.3271L6.49422 7.55034H8.61498C11.6978 7.55034 13.2392 8.84192 13.2392 11.4251C13.2392 13.7638 11.7616 14.9331 8.80632 14.9331ZM12.8565 5.57533L11.4692 5.1448C12.0007 4.39005 12.2665 3.75754 12.2665 3.24728C12.2665 2.73703 12.1443 2.3065 11.8998 1.95569C11.836 1.93443 11.6765 1.9238 11.4214 1.9238C11.1556 1.9238 10.9324 2.02479 10.7517 2.22677C10.5603 2.41812 10.2839 2.86459 9.92251 3.56619C9.56108 4.2678 9.23154 4.74616 8.93389 5.00129C8.62561 5.24579 8.25886 5.36804 7.83365 5.36804C7.23835 5.36804 6.74403 5.1076 6.35071 4.58671C5.95739 4.05519 5.76073 3.43863 5.76073 2.73703C5.76073 2.02479 5.86703 1.42418 6.07964 0.93518L7.32339 1.31787C6.93007 1.98759 6.7334 2.551 6.7334 3.0081C6.7334 3.45458 6.83971 3.85853 7.05231 4.21996C7.42438 4.21996 7.72203 4.12429 7.94526 3.93294C8.1685 3.73097 8.45552 3.29512 8.80632 2.62541C9.14649 1.9557 9.48135 1.47201 9.81089 1.17436C10.1404 0.866083 10.5178 0.711943 10.943 0.711943C11.5915 0.711943 12.1389 0.993647 12.5854 1.55706C13.0213 2.10984 13.2392 2.7636 13.2392 3.51836C13.2392 4.26248 13.1116 4.94814 12.8565 5.57533Z" fill="white"/>
</svg>
