<svg width="515" height="55" viewBox="0 0 515 55" fill="none" xmlns="http://www.w3.org/2000/svg">
<path d="M70.1762 22.2777L70.0595 20.761C72.3151 20.761 73.9355 20.3721 74.9206 19.5944C75.9058 18.8166 76.3984 17.5203 76.3984 15.7054C76.3984 12.0499 74.6873 10.2221 71.2651 10.2221C70.7206 10.2221 70.0206 10.2869 69.1651 10.4165L68.7762 16.1721V24.3388L69.3206 32H64.965L65.5095 24.2999V13.8388L64.8095 8.7054C68.0243 8.16095 70.4484 7.88873 72.0817 7.88873C77.5003 7.88873 80.2096 10.3647 80.2096 15.3166C80.2096 17.3388 79.6651 18.9721 78.5762 20.2166C77.5133 21.4351 75.9836 22.187 73.9873 22.4722L70.1762 22.2777ZM91.5452 32.5833C89.134 32.5833 87.2544 31.8185 85.9062 30.2889C84.584 28.7592 83.9229 26.5814 83.9229 23.7555C83.9229 20.9036 84.6358 18.6221 86.0618 16.911C87.4877 15.1999 89.4062 14.3443 91.8174 14.3443C94.2544 14.3443 96.1341 15.1091 97.4563 16.6388C98.8045 18.1425 99.4785 20.3203 99.4785 23.1722C99.4785 25.9981 98.7656 28.2796 97.3396 30.0167C95.9137 31.7278 93.9822 32.5833 91.5452 32.5833ZM92.1285 30.2111C92.9063 30.2111 93.7359 30.0815 94.6174 29.8222C95.473 28.6037 95.9007 26.6851 95.9007 24.0666C95.9007 21.4221 95.5118 19.5425 94.7341 18.4277C93.9822 17.2869 92.8026 16.7166 91.1951 16.7166C90.5988 16.7166 89.7951 16.8462 88.784 17.1055C87.9285 18.2981 87.5007 20.2166 87.5007 22.861C87.5007 25.5055 87.8636 27.3981 88.5896 28.5389C89.3414 29.6537 90.5211 30.2111 92.1285 30.2111ZM103.99 32L104.534 24.2999V18.8555L103.951 14.8499L107.879 14.461L107.723 17.3777C108.63 16.2888 109.434 15.511 110.134 15.0443C110.834 14.5777 111.56 14.3443 112.312 14.3443C113.09 14.3443 113.855 14.5128 114.606 14.8499L113.556 18.1944L110.056 17.1443C109.097 17.9999 108.255 19.0888 107.529 20.411V24.3388L107.956 32H103.99ZM115.5 16.9888L115.384 15.4721L118.884 14.3443L120.167 9.91096H121.839L122.073 14.3443H126.973L126.856 16.4054L121.956 16.7555V26.4389C121.956 27.8129 122.085 28.7722 122.345 29.3166C122.63 29.8352 123.174 30.0944 123.978 30.0944C124.808 30.0944 125.689 29.9648 126.623 29.7055L126.273 31.9222C125.391 32.363 124.237 32.5833 122.811 32.5833C121.385 32.5833 120.323 32.1944 119.623 31.4167C118.948 30.6389 118.611 29.3037 118.611 27.4111C118.611 26.7629 118.689 23.2888 118.845 16.9888H115.5ZM134.659 32.5833C133 32.5833 131.717 32.1426 130.809 31.2611C129.928 30.3537 129.487 29.1222 129.487 27.5666C129.487 26.0111 130.122 24.8574 131.393 24.1055C132.663 23.3536 135.333 22.6018 139.404 21.8499C139.404 19.8795 139.183 18.5184 138.743 17.7666C138.302 17.0147 137.511 16.6388 136.37 16.6388C135.748 16.6388 135.256 16.6647 134.893 16.7166L131.626 19.5944L129.876 16.6777C131.872 15.0962 134.102 14.3054 136.565 14.3054C140.635 14.3054 142.67 16.3536 142.67 20.4499V27.6444L143.37 32.0389L139.754 32.5833L139.598 30.6389C137.991 31.9352 136.344 32.5833 134.659 32.5833ZM132.793 27.4111C132.793 28.2666 133.052 28.9407 133.57 29.4333C134.115 29.9259 134.944 30.1722 136.059 30.1722C137.2 30.1722 138.315 29.7704 139.404 28.9666V24.0666C136.915 24.4296 134.802 24.987 133.065 25.7388C132.883 26.4389 132.793 26.9963 132.793 27.4111ZM148.158 32L148.702 24.2999V9.94985L148.119 5.94427L152.319 5.55538L151.891 13.1776V24.3388L152.319 32H148.158ZM166.441 32L166.986 24.2999V13.8388L166.286 8.7054L166.636 8.66651C169.462 8.14799 171.73 7.88873 173.441 7.88873C178.393 7.88873 180.869 9.93689 180.869 14.0332C180.869 16.4703 179.936 18.2851 178.069 19.4777C181.025 20.411 182.503 22.3944 182.503 25.4277C182.503 27.6055 181.595 29.3426 179.78 30.6389C177.991 31.9352 175.567 32.5833 172.508 32.5833C170.227 32.5833 168.204 32.3889 166.441 32ZM170.68 29.9778C171.614 30.1333 172.638 30.2111 173.753 30.2111C174.893 30.2111 176.164 30.0037 177.564 29.5889C178.471 28.5518 178.925 27.2555 178.925 25.7C178.925 24.1444 178.471 23.0036 177.564 22.2777C176.656 21.5518 175.23 21.1888 173.286 21.1888H170.253V24.3388L170.603 29.4333L170.68 29.9778ZM170.253 16.1721V18.9332H172.041C175.541 18.9073 177.291 17.4036 177.291 14.4221C177.291 11.6221 175.827 10.2221 172.897 10.2221C172.223 10.2221 171.471 10.2869 170.641 10.4165L170.253 16.1721ZM194.32 32.5833C191.987 32.5833 190.081 31.8056 188.603 30.25C187.126 28.6944 186.387 26.5555 186.387 23.8333C186.387 21.0851 187.139 18.8166 188.642 17.0277C190.146 15.2388 191.974 14.3443 194.126 14.3443C196.303 14.3443 197.937 14.8758 199.026 15.9388C200.115 17.0017 200.659 18.4925 200.659 20.411C200.659 21.111 200.594 21.9536 200.465 22.9388L189.964 23.2888C189.964 25.4925 190.34 27.2037 191.092 28.4222C191.87 29.6148 192.959 30.2111 194.359 30.2111C196.2 30.2111 197.898 29.55 199.453 28.2278L200.503 31.1055C198.74 32.0907 196.679 32.5833 194.32 32.5833ZM190.042 21.2666L197.12 20.9555C197.094 19.374 196.835 18.2721 196.342 17.6499C195.85 17.0277 195.046 16.7166 193.931 16.7166C192.816 16.7166 191.948 16.8332 191.326 17.0666C190.677 17.7666 190.25 19.1666 190.042 21.2666ZM205.162 32L205.707 24.2999V18.8555L205.123 14.8499L209.051 14.461L208.896 17.3777C209.803 16.2888 210.607 15.511 211.307 15.0443C212.007 14.5777 212.733 14.3443 213.485 14.3443C214.262 14.3443 215.027 14.5128 215.779 14.8499L214.729 18.1944L211.229 17.1443C210.27 17.9999 209.427 19.0888 208.701 20.411V24.3388L209.129 32H205.162ZM217.839 32L218.384 24.2999V18.8555L217.801 14.8499L221.806 14.461L221.378 22.0833V24.3388L221.806 32H217.839ZM217.295 8.54984C218.099 7.43502 218.967 6.56649 219.901 5.94427C220.912 6.69612 221.78 7.56465 222.506 8.54984C221.754 9.63874 220.886 10.5073 219.901 11.1554C218.89 10.5073 218.021 9.63874 217.295 8.54984ZM225.56 16.9888L225.443 15.4721L228.943 14.3443L230.226 9.91096H231.899L232.132 14.3443H237.032L236.915 16.4054L232.015 16.7555V26.4389C232.015 27.8129 232.145 28.7722 232.404 29.3166C232.689 29.8352 233.234 30.0944 234.037 30.0944C234.867 30.0944 235.749 29.9648 236.682 29.7055L236.332 31.9222C235.45 32.363 234.297 32.5833 232.871 32.5833C231.445 32.5833 230.382 32.1944 229.682 31.4167C229.008 30.6389 228.671 29.3037 228.671 27.4111C228.671 26.7629 228.749 23.2888 228.904 16.9888H225.56ZM244.719 32.5833C243.059 32.5833 241.776 32.1426 240.869 31.2611C239.987 30.3537 239.546 29.1222 239.546 27.5666C239.546 26.0111 240.182 24.8574 241.452 24.1055C242.722 23.3536 245.393 22.6018 249.463 21.8499C249.463 19.8795 249.243 18.5184 248.802 17.7666C248.361 17.0147 247.57 16.6388 246.43 16.6388C245.807 16.6388 245.315 16.6647 244.952 16.7166L241.685 19.5944L239.935 16.6777C241.932 15.0962 244.161 14.3054 246.624 14.3054C250.695 14.3054 252.73 16.3536 252.73 20.4499V27.6444L253.43 32.0389L249.813 32.5833L249.657 30.6389C248.05 31.9352 246.404 32.5833 244.719 32.5833ZM242.852 27.4111C242.852 28.2666 243.111 28.9407 243.63 29.4333C244.174 29.9259 245.004 30.1722 246.119 30.1722C247.259 30.1722 248.374 29.7704 249.463 28.9666V24.0666C246.974 24.4296 244.861 24.987 243.124 25.7388C242.943 26.4389 242.852 26.9963 242.852 27.4111ZM278.399 28.2666L272.021 20.061V19.6721L277.777 12.7888L279.682 8.47206H284.427V8.78318L275.443 19.0499L282.288 28.0333L285.594 31.65V32.0389L280.343 32.3111L278.399 28.2666ZM266.927 32L267.471 24.2999V16.1332L266.927 8.47206H271.282L270.738 16.1721V24.3388L271.282 32H266.927ZM294.954 32.5833C292.543 32.5833 290.663 31.8185 289.315 30.2889C287.992 28.7592 287.331 26.5814 287.331 23.7555C287.331 20.9036 288.044 18.6221 289.47 16.911C290.896 15.1999 292.815 14.3443 295.226 14.3443C297.663 14.3443 299.543 15.1091 300.865 16.6388C302.213 18.1425 302.887 20.3203 302.887 23.1722C302.887 25.9981 302.174 28.2796 300.748 30.0167C299.322 31.7278 297.391 32.5833 294.954 32.5833ZM295.537 30.2111C296.315 30.2111 297.144 30.0815 298.026 29.8222C298.881 28.6037 299.309 26.6851 299.309 24.0666C299.309 21.4221 298.92 19.5425 298.143 18.4277C297.391 17.2869 296.211 16.7166 294.604 16.7166C294.007 16.7166 293.204 16.8462 292.193 17.1055C291.337 18.2981 290.909 20.2166 290.909 22.861C290.909 25.5055 291.272 27.3981 291.998 28.5389C292.75 29.6537 293.93 30.2111 295.537 30.2111ZM305.92 16.9888L305.804 15.4721L309.304 14.3443L310.587 9.91096H312.259L312.493 14.3443H317.393L317.276 16.4054L312.376 16.7555V26.4389C312.376 27.8129 312.506 28.7722 312.765 29.3166C313.05 29.8352 313.595 30.0944 314.398 30.0944C315.228 30.0944 316.109 29.9648 317.043 29.7055L316.693 31.9222C315.811 32.363 314.657 32.5833 313.232 32.5833C311.806 32.5833 310.743 32.1944 310.043 31.4167C309.369 30.6389 309.032 29.3037 309.032 27.4111C309.032 26.7629 309.109 23.2888 309.265 16.9888H305.92ZM325.079 32.5833C323.42 32.5833 322.137 32.1426 321.229 31.2611C320.348 30.3537 319.907 29.1222 319.907 27.5666C319.907 26.0111 320.542 24.8574 321.813 24.1055C323.083 23.3536 325.753 22.6018 329.824 21.8499C329.824 19.8795 329.603 18.5184 329.163 17.7666C328.722 17.0147 327.931 16.6388 326.79 16.6388C326.168 16.6388 325.676 16.6647 325.313 16.7166L322.046 19.5944L320.296 16.6777C322.292 15.0962 324.522 14.3054 326.985 14.3054C331.055 14.3054 333.091 16.3536 333.091 20.4499V27.6444L333.791 32.0389L330.174 32.5833L330.018 30.6389C328.411 31.9352 326.765 32.5833 325.079 32.5833ZM323.213 27.4111C323.213 28.2666 323.472 28.9407 323.99 29.4333C324.535 29.9259 325.365 30.1722 326.479 30.1722C327.62 30.1722 328.735 29.7704 329.824 28.9666V24.0666C327.335 24.4296 325.222 24.987 323.485 25.7388C323.303 26.4389 323.213 26.9963 323.213 27.4111ZM352.654 22.2777L352.538 20.761C354.793 20.761 356.413 20.3721 357.399 19.5944C358.384 18.8166 358.876 17.5203 358.876 15.7054C358.876 12.0499 357.165 10.2221 353.743 10.2221C353.199 10.2221 352.499 10.2869 351.643 10.4165L351.254 16.1721V24.3388L351.799 32H347.443L347.987 24.2999V13.8388L347.287 8.7054C350.502 8.16095 352.926 7.88873 354.56 7.88873C359.978 7.88873 362.688 10.3647 362.688 15.3166C362.688 17.3388 362.143 18.9721 361.054 20.2166C359.991 21.4351 358.462 22.187 356.465 22.4722L352.654 22.2777ZM371.184 32.5833C369.525 32.5833 368.242 32.1426 367.334 31.2611C366.453 30.3537 366.012 29.1222 366.012 27.5666C366.012 26.0111 366.647 24.8574 367.918 24.1055C369.188 23.3536 371.858 22.6018 375.929 21.8499C375.929 19.8795 375.708 18.5184 375.268 17.7666C374.827 17.0147 374.036 16.6388 372.895 16.6388C372.273 16.6388 371.781 16.6647 371.418 16.7166L368.151 19.5944L366.401 16.6777C368.397 15.0962 370.627 14.3054 373.09 14.3054C377.16 14.3054 379.195 16.3536 379.195 20.4499V27.6444L379.895 32.0389L376.279 32.5833L376.123 30.6389C374.516 31.9352 372.869 32.5833 371.184 32.5833ZM369.318 27.4111C369.318 28.2666 369.577 28.9407 370.095 29.4333C370.64 29.9259 371.469 30.1722 372.584 30.1722C373.725 30.1722 374.84 29.7704 375.929 28.9666V24.0666C373.44 24.4296 371.327 24.987 369.59 25.7388C369.408 26.4389 369.318 26.9963 369.318 27.4111ZM384.683 32L385.227 24.2999V9.94985L384.644 5.94427L388.844 5.55538L388.416 13.1776V24.3388L388.844 32H384.683ZM401.412 32.5833C399.079 32.5833 397.173 31.8056 395.696 30.25C394.218 28.6944 393.479 26.5555 393.479 23.8333C393.479 21.0851 394.231 18.8166 395.735 17.0277C397.238 15.2388 399.066 14.3443 401.218 14.3443C403.396 14.3443 405.029 14.8758 406.118 15.9388C407.207 17.0017 407.751 18.4925 407.751 20.411C407.751 21.111 407.687 21.9536 407.557 22.9388L397.057 23.2888C397.057 25.4925 397.433 27.2037 398.185 28.4222C398.962 29.6148 400.051 30.2111 401.451 30.2111C403.292 30.2111 404.99 29.55 406.546 28.2278L407.596 31.1055C405.833 32.0907 403.772 32.5833 401.412 32.5833ZM397.135 21.2666L404.212 20.9555C404.186 19.374 403.927 18.2721 403.435 17.6499C402.942 17.0277 402.138 16.7166 401.023 16.7166C399.909 16.7166 399.04 16.8332 398.418 17.0666C397.77 17.7666 397.342 19.1666 397.135 21.2666ZM426.06 18.4666L426.138 19.711V32L422.327 32.1944L422.871 23.7555V19.6721C422.871 18.7129 422.716 18.0388 422.405 17.6499C422.119 17.2351 421.627 17.0277 420.927 17.0277C419.345 17.0277 417.699 17.5073 415.988 18.4666V32H412.255L412.799 24.2999V18.8166L412.216 14.811L415.988 14.4221V16.4054C418.062 15.0314 420.123 14.3443 422.171 14.3443C423.831 14.3443 424.984 15.1091 425.632 16.6388C427.914 15.1091 430.118 14.3443 432.244 14.3443C433.54 14.3443 434.525 14.811 435.199 15.7443C435.873 16.6517 436.21 17.974 436.21 19.711V32L432.399 32.1944L432.944 23.7555V19.6721C432.944 18.7129 432.788 18.0388 432.477 17.6499C432.192 17.2351 431.699 17.0277 430.999 17.0277C429.418 17.0277 427.771 17.5073 426.06 18.4666ZM441.687 31.7278L442.232 24.0277V9.94985L441.648 5.94427L445.965 5.55538L445.421 13.2554V16.1721C446.924 14.9536 448.584 14.3443 450.398 14.3443C452.213 14.3443 453.652 15.0832 454.715 16.561C455.778 18.0129 456.31 19.9833 456.31 22.4722C456.31 25.5574 455.48 28.0203 453.821 29.8611C452.187 31.6759 449.984 32.5833 447.21 32.5833C445.317 32.5833 443.476 32.2982 441.687 31.7278ZM445.421 29.7833C445.991 30.0685 446.847 30.2111 447.987 30.2111C449.128 30.2111 450.23 30.0815 451.293 29.8222C452.252 28.6555 452.732 26.5944 452.732 23.6388C452.732 19.2314 451.578 17.0277 449.271 17.0277C448.026 17.0277 446.743 17.3388 445.421 17.961V29.7833ZM464.989 32.5833C463.33 32.5833 462.047 32.1426 461.139 31.2611C460.258 30.3537 459.817 29.1222 459.817 27.5666C459.817 26.0111 460.452 24.8574 461.722 24.1055C462.993 23.3536 465.663 22.6018 469.734 21.8499C469.734 19.8795 469.513 18.5184 469.073 17.7666C468.632 17.0147 467.841 16.6388 466.7 16.6388C466.078 16.6388 465.585 16.6647 465.223 16.7166L461.956 19.5944L460.206 16.6777C462.202 15.0962 464.432 14.3054 466.895 14.3054C470.965 14.3054 473 16.3536 473 20.4499V27.6444L473.7 32.0389L470.084 32.5833L469.928 30.6389C468.321 31.9352 466.674 32.5833 464.989 32.5833ZM463.122 27.4111C463.122 28.2666 463.382 28.9407 463.9 29.4333C464.445 29.9259 465.274 30.1722 466.389 30.1722C467.53 30.1722 468.645 29.7704 469.734 28.9666V24.0666C467.245 24.4296 465.132 24.987 463.395 25.7388C463.213 26.4389 463.122 26.9963 463.122 27.4111ZM478.488 32L479.032 24.2999V18.8166L478.449 14.811L482.221 14.4221V16.4054C484.321 15.0314 486.434 14.3443 488.56 14.3443C489.882 14.3443 490.893 14.811 491.593 15.7443C492.293 16.6517 492.643 17.974 492.643 19.711V32L488.832 32.1944L489.377 23.8333V19.6721C489.377 18.7129 489.221 18.0388 488.91 17.6499C488.599 17.2351 488.08 17.0277 487.354 17.0277C485.773 17.0277 484.062 17.5073 482.221 18.4666V32H478.488ZM498.589 28.8889C498.589 28.4481 498.705 28.0333 498.939 27.6444C499.172 27.2296 499.691 26.5296 500.494 25.5444C498.731 24.5851 497.85 22.9388 497.85 20.6055C497.85 18.661 498.472 17.1314 499.717 16.0166C500.987 14.9017 502.568 14.3443 504.461 14.3443C506.38 14.3443 507.831 14.6425 508.817 15.2388L513.833 14.3054L513.444 17.1832L510.683 17.0277C511.176 17.9092 511.422 18.9332 511.422 20.0999C511.422 22.0444 510.787 23.574 509.517 24.6888C508.272 25.8037 506.548 26.3611 504.344 26.3611C503.541 26.3611 502.789 26.2833 502.089 26.1277L501.078 28.2278C501.57 28.5907 502.154 28.8629 502.828 29.0444C503.528 29.2 504.746 29.3685 506.483 29.55L509.478 29.9C511.863 30.2111 513.056 31.4815 513.056 33.7111C513.056 35.7074 512.2 37.3408 510.489 38.6112C508.804 39.8815 506.613 40.5167 503.917 40.5167C501.868 40.5167 500.248 40.1149 499.055 39.3112C497.889 38.5075 497.305 37.4056 497.305 36.0056C497.305 34.1648 498.33 32.6222 500.378 31.3778C499.185 30.7555 498.589 29.9259 498.589 28.8889ZM500.455 35.1111C500.455 37.263 502.037 38.3389 505.2 38.3389C508.389 38.3389 509.983 37.2111 509.983 34.9556C509.983 34.3333 509.906 33.8019 509.75 33.3611L501.739 31.9222C500.883 32.7259 500.455 33.7889 500.455 35.1111ZM501.233 20.2944C501.233 22.887 502.374 24.1833 504.656 24.1833C506.963 24.1833 508.117 22.887 508.117 20.2944C508.117 18.9721 507.818 18.0129 507.222 17.4166C506.652 16.8203 505.835 16.5221 504.772 16.5221C503.709 16.5221 502.802 16.6388 502.05 16.8721C501.505 17.5203 501.233 18.661 501.233 20.2944Z" fill="black"/>
<path d="M63.3076 37.9297L489.882 37.9297" stroke="black" stroke-width="2.261" stroke-linecap="round"/>
<g clip-path="url(#clip0_1702_674)">
<path d="M34.5641 53.8703C33.2455 53.2491 31.417 52.7239 30.3143 52.6142L29.7432 52.5575L29.619 52.1121C29.5346 51.8094 29.3724 51.4097 29.311 51.3601C29.2495 51.3105 28.7102 51.201 28.1213 51.0991C23.0377 50.2195 19.1881 50.1956 14.3589 50.9724C13.0752 51.1789 12.8431 51.1957 12.8395 51.4429C12.8388 51.4953 12.6833 51.9383 12.6088 52.1892C12.476 52.636 12.6982 52.4424 12.4095 52.3956C11.7869 52.2946 9.20334 53.0582 7.47788 53.8167C7.073 53.9946 6.97367 54.09 6.9748 54.0551C6.97593 54.0202 7.012 53.5926 7.10789 52.9549C7.20379 52.3172 7.27595 51.7595 7.27708 51.7242C7.27821 51.689 6.91785 51.2585 6.44981 50.8823C5.98177 50.506 5.4765 50.269 5.49461 50.2145C5.52574 50.1209 6.36693 49.8894 7.92864 49.3309C8.43897 49.1484 8.74289 49.0059 8.74289 48.889C8.74289 48.6889 8.7934 48.5447 10.2866 48.1586C11.7861 47.771 13.4103 47.4935 15.2605 47.2107C18.0554 46.7835 22.6245 46.8625 25.897 47.3458C29.0588 47.8129 33.4076 48.8168 33.554 49.0901C33.6024 49.1806 34.0955 49.4102 34.5686 49.5772C36.1255 50.127 36.7094 50.2602 36.6807 50.4075C36.6571 50.5285 35.9019 50.7491 35.1768 51.4955L34.9439 51.7352L35.1508 52.891C35.2631 53.5185 35.3063 54.0304 35.3229 54.1162C35.3642 54.33 35.3377 54.2346 34.5641 53.8703Z" fill="white"/>
<path d="M16.2211 3.54233C16.2469 3.30706 16.3641 3.05763 16.5526 2.91433C16.5945 2.88245 16.6713 2.84902 16.707 2.88057C16.7427 2.91213 16.7263 3.04502 16.7377 3.127C16.7493 3.21031 16.7391 3.30092 16.7762 3.37638C16.809 3.44301 16.8632 3.50536 16.9301 3.53759C17.0872 3.61323 17.2839 3.63299 17.4513 3.58395C17.7305 3.50215 17.9047 3.2189 18.1413 3.04971C18.3627 2.89144 18.5531 2.63557 18.823 2.60054C19.0533 2.57064 19.2774 2.71538 19.4834 2.82259C19.5943 2.88035 19.7854 3.04535 19.7854 3.04535C19.7854 3.04535 19.8403 2.85567 19.8979 2.778C19.981 2.66596 20.112 2.59907 20.2198 2.51064C20.2669 2.47209 20.3313 2.44859 20.3617 2.3959C20.3952 2.3376 20.3819 2.2629 20.3926 2.1965C20.4223 2.01233 20.4086 1.81468 20.4852 1.64454C20.5571 1.48473 20.6674 1.32917 20.8155 1.23552C20.9262 1.16554 21.067 1.13365 21.1976 1.14364C21.3221 1.15316 21.4549 1.19833 21.5442 1.28554C21.7518 1.48839 21.8088 1.80562 21.8928 2.08343C21.9173 2.16432 21.9009 2.25664 21.937 2.33304C21.9664 2.39526 22.0322 2.43325 22.0713 2.48995C22.1419 2.59256 22.2003 2.70394 22.2497 2.81828C22.2857 2.90147 22.2803 3.05277 22.3348 3.07651C22.3893 3.10025 22.485 2.99097 22.5635 2.95496C22.8027 2.84518 23.036 2.65919 23.2991 2.66802C23.5861 2.67764 23.846 2.86623 24.0789 3.03416C24.2125 3.13047 24.2746 3.31351 24.4193 3.39209C24.6562 3.52068 24.9554 3.61589 25.2141 3.54044C25.2836 3.52017 25.3409 3.4571 25.3727 3.39208C25.4139 3.30766 25.3916 3.20509 25.3982 3.11136C25.4041 3.02657 25.352 2.91823 25.4106 2.85666C25.4387 2.82723 25.4947 2.82859 25.532 2.84475C25.7535 2.94063 25.9208 3.18305 25.9732 3.41851C26.0249 3.65093 25.9779 3.93869 25.8189 4.11595C25.6924 4.25695 25.4699 4.29942 25.2805 4.29814C25.089 4.29685 24.9149 4.18188 24.7388 4.10666C24.6406 4.06471 24.5587 3.97641 24.4528 3.96225C24.259 3.93632 24.0723 4.05688 23.8781 4.07961C23.8236 4.086 23.7423 4.10979 23.7135 4.08482C23.6847 4.05985 23.7106 3.95659 23.6774 3.90545C23.5435 3.69952 23.3189 3.44157 23.0761 3.47919C22.8898 3.50805 22.8676 3.79599 22.7355 3.93042C22.598 4.07038 22.467 4.2713 22.272 4.2933C22.1927 4.30225 22.11 4.24949 22.0553 4.19137C22.0093 4.14253 22.007 4.06621 21.9808 4.00447C21.8641 3.7291 21.8469 3.37206 21.6125 3.18625C21.4695 3.07294 21.2566 3.06179 21.0752 3.08142C20.8743 3.10316 20.6598 3.17742 20.5188 3.32211C20.374 3.4707 20.3511 3.7023 20.2867 3.89946C20.2512 4.00812 20.2811 4.14913 20.2021 4.23177C20.1527 4.28349 20.0673 4.30554 19.9967 4.29408C19.8078 4.26344 19.6785 4.08075 19.5282 3.96236C19.314 3.79362 19.1847 3.41081 18.9122 3.42404C18.7209 3.43332 18.6096 3.67399 18.5182 3.84227C18.4833 3.90653 18.4919 4.01838 18.4662 4.05539C18.4405 4.0924 18.3923 4.07867 18.3543 4.07834C18.1921 4.0769 18.0417 3.96983 17.8795 3.97216C17.6981 3.97475 17.525 4.05164 17.352 4.10612C17.1787 4.16066 17.0236 4.30908 16.8423 4.29873C16.4446 4.23371 16.1851 3.92152 16.2211 3.54233ZM21.5187 2.22457C21.5279 2.09107 21.525 1.9515 21.4819 1.82482C21.451 1.73407 21.4068 1.63654 21.3281 1.58177C21.2666 1.53902 21.1812 1.51764 21.1085 1.53507C21.0108 1.55845 20.9317 1.64213 20.8741 1.72438C20.8155 1.80822 20.7822 1.91273 20.7747 2.01476C20.7675 2.11237 20.7871 2.2146 20.828 2.3035C20.8664 2.38671 20.9238 2.46784 21.001 2.5171C21.0762 2.56504 21.1716 2.58896 21.2606 2.58204C21.3305 2.5766 21.4092 2.55364 21.4543 2.50001C21.5151 2.42789 21.5123 2.31864 21.5187 2.22457Z" fill="#D1AF66"/>
<path d="M21.1469 46.331V45.7208L19.4738 45.6624C18.5537 45.6303 16.8371 45.6033 15.6593 45.6025C12.7571 45.6004 10.7524 45.4759 9.85943 45.2422C8.36438 44.851 7.27192 44.2538 6.14644 43.2126C5.44795 42.5664 5.07383 42.0361 4.70417 41.168L4.4674 40.612L4.40506 26.6979C4.37077 19.0452 4.3308 12.7838 4.31624 12.7838C4.30169 12.7838 3.89668 12.8822 3.41622 13.0024C1.3672 13.515 0.880883 13.5009 0.364829 12.9134C0.144493 12.6626 0.0888672 12.519 0.0888672 12.201C0.0888672 11.982 0.208743 12.1498 0.230476 12.1498C0.252208 12.1498 0.309405 12.1516 0.482361 12.2536C0.858759 12.4755 1.2412 12.3528 1.45721 11.8492C1.64219 11.4178 1.60579 11.4282 2.14881 11.3414C2.51677 11.2826 2.79537 11.1518 2.874 10.9288C2.90451 10.8423 2.82337 10.8415 3.02738 10.9586C3.28991 11.1092 3.50169 11.0364 3.72238 10.798C4.6431 9.8032 7.28396 5.75556 7.4349 5.15339C7.45982 5.05401 7.46922 4.73587 7.39341 4.52124C7.23159 4.06309 7.11188 3.79751 7.2536 3.5218C7.37294 3.28963 7.4681 2.8773 7.55966 2.8773C7.59524 2.8773 7.58911 2.71483 7.62089 2.90288C7.68601 3.28814 8.35919 4.199 8.45399 4.10445C8.48815 4.07038 8.56775 3.61977 8.6184 3.43984C8.66905 3.25992 8.63612 3.22495 8.69497 3.22495C8.75383 3.22495 8.67868 3.27089 8.79002 3.48917C9.02256 3.94504 9.54223 4.14091 9.54223 3.82269C9.54223 3.70535 9.56899 3.62328 9.63912 3.52807C9.76142 3.36205 9.52474 3.28885 9.83699 3.65235C10.0161 3.86082 10.3259 4.09261 10.3632 4.09261C10.4006 4.09261 10.5382 4.01268 10.5941 3.89006C10.65 3.76743 10.6782 3.6671 10.7192 3.6671C10.7602 3.6671 10.6462 3.75928 10.8394 3.95618L11.2934 4.41873L21.1542 4.38812L31.0047 4.3575L31.3747 3.91536C31.5492 3.70692 31.5339 3.61607 31.5757 3.61607C31.6176 3.61607 31.5749 3.67559 31.6309 3.79822C31.7715 4.10667 32.1122 4.01008 32.4821 3.58031C32.8635 3.13715 32.6647 3.09484 32.6154 3.611C32.5972 3.80146 32.7903 4.07975 32.8199 4.07975C32.9249 4.07975 33.3978 3.82704 33.5106 3.54164C33.5735 3.38222 33.5125 3.2824 33.5496 3.2824C33.6685 3.2824 33.3868 3.37169 33.6586 3.54825L33.9085 3.86665L34.224 3.74274C34.3835 3.68009 34.5058 3.2621 34.5394 3.06306C34.6086 2.65424 34.4314 2.70137 34.6988 2.99368C35.2082 3.55054 35.4556 3.8725 35.1119 4.47346L34.7079 4.87892L34.9556 5.55275C35.3951 6.74865 36.9968 8.91471 38.3053 10.3765L38.8446 10.979L39.3701 10.9955C39.6523 11.0043 39.3647 10.7717 39.3647 10.8774C39.3647 11.1258 39.8186 11.324 40.1738 11.324C40.6042 11.324 40.5968 11.2988 40.8338 11.7923C41.0535 12.2499 41.5019 12.4588 41.7945 12.184C42.0371 11.9563 41.9803 11.9112 41.9803 12.2267C41.9803 12.5496 41.9804 12.831 41.6389 13.0914C41.3934 13.2785 41.2426 13.3189 40.7896 13.3189C40.3361 13.3189 38.6011 13.01 37.9888 12.8202C37.8406 12.7743 37.8327 13.4781 37.8327 26.7432V40.7146L37.414 41.5249C36.3737 43.5381 34.0508 45.081 31.5421 45.4252C31.1495 45.479 28.8105 45.5467 26.3445 45.5756L21.8607 45.6281V46.2847V46.9412H21.5038H21.1469L21.1469 46.331Z" fill="white"/>
<path d="M0.842889 13.3176C0.411126 13.1296 0.0888672 12.6848 0.0888672 12.2768C0.0888672 12.0758 0.139369 11.9492 0.139369 11.9492C0.139369 11.9492 0.267059 11.9839 0.421435 12.1053C0.546215 12.2034 0.722167 12.2836 0.812441 12.2836C0.978571 12.2836 1.24884 11.8734 1.24884 11.6212C1.24884 11.4353 1.5776 11.2386 2.00729 11.1676C2.59068 11.0712 2.67651 11.0313 2.67651 10.8559C2.67651 10.6074 2.81049 10.5706 2.99071 10.7696C3.28831 11.0983 3.2691 11.1157 4.64697 9.27222C5.06003 8.71959 5.52723 8.08842 5.68519 7.8696C6.10821 7.28363 7.31641 5.16456 7.31641 5.0086C7.31641 4.93472 7.2361 4.71693 7.13795 4.52464C6.83509 3.93128 6.9274 3.28559 7.38339 2.80785C7.53896 2.64486 7.63375 2.56744 7.68965 2.58083C7.74555 2.59421 7.76255 2.6984 7.76255 2.89863C7.76255 3.11138 7.84557 3.35677 7.98884 3.5675C8.2354 3.93016 8.38716 3.99409 8.38716 3.73529C8.38716 3.50671 8.56832 3.00851 8.65145 3.00851C8.68906 3.00851 8.78901 3.18957 8.87356 3.41086C8.95812 3.63215 9.10411 3.85429 9.19799 3.90451C9.29186 3.95472 9.37308 3.98436 9.37846 3.97038C9.38384 3.95639 9.39939 3.811 9.41302 3.6473C9.43998 3.32353 9.62849 3.06033 9.69807 3.24929C9.76795 3.43904 10.0914 3.80962 10.2709 3.90565C10.421 3.98598 10.4587 3.961 10.5404 3.72672C10.5926 3.57696 10.6638 3.45443 10.6987 3.45443C10.7335 3.45443 10.8893 3.63503 11.045 3.85576L11.328 4.25708H21.0912H30.8544L31.121 3.95358C31.2676 3.78666 31.4255 3.53647 31.4255 3.53647C31.4255 3.53647 31.6759 3.52084 31.6759 3.72198C31.6759 4.13618 32.1845 3.94974 32.3869 3.46134C32.4494 3.31039 32.5552 3.18688 32.6219 3.18688C32.7905 3.18688 32.8844 3.62388 32.7589 3.82463C32.672 3.96372 32.6829 3.98953 32.8286 3.98953C33.041 3.98953 33.339 3.62592 33.4168 3.27188C33.4486 3.12703 33.5102 3.00851 33.5537 3.00851C33.6627 3.00851 33.8174 3.31589 33.8174 3.53249C33.8174 4.01535 34.3136 3.73121 34.4034 3.19693C34.4596 2.8626 34.489 2.69394 34.536 2.63804C34.5831 2.58213 34.6478 2.63897 34.7749 2.75563C34.8996 2.87019 35.0783 3.13439 35.172 3.34274C35.3755 3.79512 35.3264 4.20137 35.0177 4.61966L34.8082 4.90343L35.2005 5.68406C35.4162 6.1134 35.6498 6.52176 35.7196 6.59152C35.7894 6.66128 35.9129 6.84663 35.994 7.00341C36.4223 7.83129 38.763 10.9437 38.9583 10.9451C39.0131 10.9456 39.1636 10.8627 39.2929 10.761L39.528 10.5762V10.8025C39.528 11.087 39.7554 11.2134 40.2668 11.2134C40.7069 11.2134 40.8924 11.3609 40.9955 11.7926C41.0306 11.9395 41.1011 12.1101 41.1523 12.1716C41.2995 12.349 41.742 12.308 41.8687 12.1053C41.9387 11.9933 41.9936 11.9369 42.0398 11.9358C42.086 11.9348 42.1234 11.9891 42.1582 12.0987C42.2348 12.3397 42.0049 12.8418 41.7129 13.0713C41.182 13.4888 40.9344 13.4956 39.2467 13.1396C38.3954 12.96 37.3375 12.6949 36.8958 12.5506C35.3377 12.0414 31.4679 11.0344 29.8901 10.7275C29.0117 10.5567 27.5384 10.306 26.6161 10.1704C24.9926 9.93181 24.8197 9.92395 21.1915 9.92373C17.5708 9.92355 17.385 9.93189 15.7039 10.1712C14.7469 10.3074 13.5289 10.4995 12.9971 10.598C11.688 10.8406 8.53506 11.6334 6.46874 12.2397C4.59955 12.7881 1.81898 13.445 1.38971 13.4395C1.23862 13.4376 0.99255 13.3827 0.842889 13.3176ZM5.98866 10.7872C9.25074 9.68927 11.6447 9.55406 15.7402 9.05724C17.5399 8.83892 23.1752 9.01205 25.073 9.19945C29.6376 9.6502 33.0897 10.3746 37.2452 11.7536C38.2717 12.0942 38.7622 12.2466 38.7825 12.2263C38.8028 12.206 38.6369 12.0412 38.3242 11.6814C36.7834 9.9076 34.8088 7.96191 34.026 6.26999L33.7008 5.56729L21.0743 5.6068L8.521 5.75603L8.03024 5.97502C8.76515 5.64708 5.95412 9.10444 5.00237 10.277C3.56874 12.0432 3.32958 12.1617 3.38484 12.1617C3.41643 12.1617 4.02634 11.3604 5.11463 10.9941L5.98866 10.7872Z" fill="#FFCB2E"/>
<path d="M3.53595 11.8907C3.75622 11.6177 4.27246 10.9977 4.68314 10.5129C5.54396 9.49682 7.60564 6.76929 8.13021 5.95257L8.48712 5.39687L33.667 5.39526L34.3222 6.35399C35.3812 7.9036 36.8612 9.79491 38.6524 11.8875C38.8328 12.0982 38.9655 12.2851 38.9473 12.3028C38.9291 12.3205 38.332 12.1356 37.6204 11.892C32.4384 10.1176 27.3308 9.1926 22.0945 9.0803C17.6449 8.98487 13.6189 9.44301 8.98782 10.5718C7.54322 10.9239 4.34805 11.9063 3.31287 12.3167C3.19065 12.3651 3.26006 12.2326 3.53595 11.8907Z" fill="#EB3437"/>
<path d="M21.1461 45.7192L16.3035 45.6502C10.8932 45.5731 10.514 45.5511 9.01979 45.0173C7.90715 44.6198 7.07551 44.112 6.22009 43.3077C5.37608 42.5141 5.12742 42.1627 4.7699 41.2582L4.46769 40.6143L4.31836 12.8186L4.67499 12.7258C4.84911 12.6805 4.99012 12.5793 5.00738 12.5793C5.02463 12.5793 5.06268 13.6917 5.09897 15.1425L5.16495 17.7804L5.38193 17.4167C5.50128 17.2167 5.63182 17.053 5.67204 17.053C5.71225 17.053 5.89441 17.3369 6.07682 17.6838C6.25924 18.0308 6.42372 18.2995 6.44233 18.2809C6.46094 18.2623 6.66337 17.3664 6.89218 16.29C7.12099 15.2136 7.34953 14.2807 7.40005 14.2169C7.58361 13.9852 7.71243 14.3361 8.13016 16.2058C8.36031 17.2358 8.5793 18.1107 8.61682 18.15C8.65433 18.1892 8.81065 17.9584 8.96419 17.6371C9.12522 17.3002 9.30018 17.053 9.37762 17.053C9.51853 17.053 9.8914 17.7176 9.99781 18.1584C10.0326 18.3026 10.093 18.3813 10.1346 18.3368C10.1755 18.2929 10.4371 17.2336 10.7157 15.9828C10.9944 14.732 11.2424 13.6384 11.2669 13.5525C11.3311 13.3278 11.625 13.3587 11.6917 13.5971C11.7226 13.7075 11.9497 14.6004 12.1964 15.5815C12.443 16.5625 12.6891 17.5032 12.7432 17.672L12.8414 17.9789L13.1459 17.3752C13.4988 16.6757 13.5757 16.6844 13.8974 17.4602C14.0749 17.8883 14.244 18.0876 14.244 17.8687C14.244 17.6911 15.0632 13.4151 15.1487 13.1466C15.2002 12.9846 15.2888 12.8673 15.3455 12.8859C15.4936 12.9343 15.5913 13.2724 16.1632 15.7152C16.4445 16.917 16.7027 17.9311 16.7371 17.9689C16.7714 18.0067 16.8945 17.8348 17.0106 17.587C17.3017 16.9658 17.4134 16.8897 17.5747 17.2028C17.646 17.3411 17.7565 17.6291 17.8203 17.8426C17.9728 18.3535 17.968 18.3689 18.5276 15.5785C18.7815 14.3124 19.0248 13.1831 19.0682 13.0689C19.233 12.6358 19.3855 12.842 19.5911 13.7755C20.0611 15.9098 20.5131 17.8194 20.5746 17.9312C20.618 18.0102 20.7113 17.8726 20.8465 17.5299C21.2221 16.5782 21.3308 16.5766 21.747 17.5164C21.9024 17.8674 22.0142 18.0279 22.0452 17.9445C22.0724 17.8711 22.3317 16.715 22.6213 15.3754C22.911 14.0358 23.173 12.9147 23.2035 12.8842C23.3734 12.7144 23.5597 13.4163 24.245 16.8077C24.3615 17.3841 24.4791 17.8557 24.5065 17.8557C24.5339 17.8557 24.685 17.5948 24.8423 17.276C24.9996 16.9571 25.171 16.6963 25.2232 16.6963C25.3054 16.6963 25.5806 17.237 25.7905 17.8111C25.8944 18.0951 25.9766 17.8497 26.1936 16.6071C26.5553 14.5361 26.9437 12.8614 27.0624 12.8614C27.1243 12.8614 27.2172 13.0119 27.2687 13.1958C27.3803 13.5939 28.3422 17.7942 28.3422 17.8832C28.3422 18.027 28.4997 17.9279 28.5916 17.7264C28.6463 17.6063 28.7961 17.3417 28.9245 17.1386C29.1394 16.7983 29.1699 16.7801 29.3112 16.9079C29.3956 16.9843 29.5373 17.2488 29.6262 17.4958C29.7151 17.7428 29.8204 17.9448 29.8602 17.9448C29.9 17.9448 30.1006 17.2325 30.306 16.3618C30.8467 14.0691 31.0866 13.1208 31.1393 13.0682C31.2708 12.9368 31.3896 13.276 31.7772 14.8886C32.0103 15.8583 32.2681 16.93 32.3502 17.2702L32.4995 17.8888L32.7446 17.4709C32.8793 17.2411 33.0271 17.053 33.073 17.053C33.1189 17.053 33.2242 17.1634 33.3069 17.2983C33.3897 17.4331 33.5187 17.6438 33.5936 17.7665C33.7242 17.9804 33.7482 17.9132 34.1842 16.1166C34.6386 14.2437 34.7099 14.0208 34.8542 14.0208C34.9668 14.0208 35.0763 14.4107 35.4803 16.2503C35.6796 17.1578 35.8539 17.9377 35.8678 17.9835C35.8816 18.0293 36.0443 17.7963 36.2293 17.4657C36.4143 17.1351 36.6126 16.88 36.67 16.8988C36.7274 16.9177 36.8546 17.1507 36.9528 17.4167L37.1312 17.9002L37.1866 16.5625C37.2171 15.8267 37.2472 14.608 37.2536 13.8543L37.2651 12.6622L37.4658 12.716C37.5763 12.7455 37.7717 12.7919 37.8208 12.7926L37.8328 40.7142L37.3765 41.5785C37.0089 42.275 36.8357 42.551 36.1988 43.1838C35.1288 44.2471 33.6418 45.0519 32.1344 45.3839C31.3934 45.5471 28.245 45.6074 24.4384 45.6749L21.8591 45.7207L21.861 46.9411C21.6528 46.9411 21.3543 46.9411 21.1461 46.9411L21.1461 45.7192ZM31.1281 44.8769C33.0047 44.662 34.8077 43.7939 35.974 42.5436C36.6626 41.8055 36.9719 41.2235 37.0843 40.4544C37.1372 40.0928 37.199 35.8259 37.2343 30.0961L37.2945 20.3528L23.5608 20.353C16.0073 20.3531 8.77382 20.3796 7.48639 20.4118L5.14559 20.4705L5.12182 25.3837C5.10874 28.0859 5.11813 32.6646 5.14266 35.5586L5.18728 40.8205L5.45144 41.3556C5.86296 42.1892 7.11727 43.3861 8.13183 43.9133C9.60261 44.6776 10.1283 44.8082 12.0133 44.8771C14.7258 44.9763 30.2614 44.9762 31.1281 44.8769ZM37.1758 19.5089C37.1758 19.2202 37.0988 18.8295 36.9867 18.5501C36.8826 18.2908 36.7688 17.9783 36.7337 17.8557C36.673 17.6437 36.6537 17.6579 36.3401 18.1455C36.1588 18.4275 35.9493 18.6583 35.8747 18.6583C35.6913 18.6583 35.5205 18.219 35.3527 17.3156C35.2758 16.9014 35.12 16.2266 35.0066 15.816L34.8494 15.1775L34.5655 16.6092C34.4011 17.4384 34.0855 18.1726 34.0258 18.2975C33.9258 18.5067 33.518 18.6758 33.517 18.5084C33.5167 18.4682 33.4209 18.2775 33.3041 18.0845L33.0916 17.7337L32.899 18.1112C32.682 18.5362 32.4915 18.6521 32.3092 18.4698C32.2412 18.4018 32.0408 17.704 31.8638 16.9192C31.6868 16.1344 31.4765 15.2013 31.3965 14.8457C31.3165 14.4901 31.2438 14.347 31.211 14.3838C31.1782 14.4206 31.0396 15.1347 30.831 16.0667C30.5069 17.5147 30.4373 17.9944 30.1992 18.7901C30.1311 19.0176 29.7574 18.8285 29.6258 18.5022C29.5516 18.3183 29.4199 18.0124 29.3333 17.8225L29.1757 17.4771L29.0711 17.8629C29.0165 18.0644 28.8531 18.2502 28.8226 18.372C28.7489 18.6652 28.3644 18.8089 28.2039 18.6447C28.0918 18.5301 27.7574 17.1701 27.3197 15.0487C27.199 14.4638 27.166 14.2684 27.1356 14.3736C27.0116 14.803 26.3624 17.7873 26.3071 18.2117C26.2735 18.4703 26.1419 18.6841 26.0989 18.7107C25.8901 18.8397 25.6611 18.6206 25.4768 18.1154C25.3699 17.8224 25.2547 17.5655 25.2208 17.5445C25.1869 17.5236 25.0439 17.7476 24.9029 18.0422C24.5866 18.7037 24.4402 18.8446 24.2868 18.635C24.2032 18.5208 23.5508 15.4227 23.3245 14.0653C23.2928 13.8752 23.0885 14.8775 22.998 15.5467C22.8968 16.2943 22.4866 18.5956 22.393 18.7121C22.1842 18.9721 21.7972 18.717 21.5739 18.1314C21.3739 17.6071 21.3458 17.5737 21.2335 17.7273C21.1661 17.8194 21.1351 18.0781 21.0883 18.2513C20.9832 18.6397 20.698 18.9259 20.5391 18.9259C20.3984 18.9259 20.3122 18.7449 20.2207 18.257C20.1169 17.7032 19.3373 14.5169 19.2731 14.3668C19.2345 14.2767 19.2771 14.4295 19.2248 14.6398C19.1053 15.1204 18.9149 16.0652 18.7778 16.9041C18.5457 18.3238 18.3232 18.7591 18.1574 18.954C17.9936 19.1467 17.9902 19.1469 17.8564 18.9737C17.782 18.8774 17.6542 18.5865 17.5724 18.3272C17.4906 18.0678 17.3955 17.8557 17.3611 17.8557C17.3267 17.8557 17.2089 18.0764 17.0993 18.3462C16.7138 19.2956 16.51 18.9799 15.9711 16.5984C15.7447 15.5976 15.5403 14.6283 15.5169 14.4444C15.4265 13.7318 15.4034 14.0625 15.0313 16.146C14.7434 17.7585 14.3942 18.8367 14.2882 18.8367C14.1206 18.8367 13.7979 18.4835 13.7979 18.3003C13.7979 18.2053 13.7241 18.0063 13.634 17.8581C13.4701 17.5887 13.4008 17.6428 13.4008 17.9054C13.4008 18.2078 12.9597 18.9322 12.8216 18.9056C12.6014 18.8632 12.4959 18.5471 12.001 16.4445C11.7439 15.3527 11.5351 14.5701 11.501 14.6334C11.4668 14.6967 11.3281 15.5017 11.1208 16.4582C10.5022 19.3131 10.4822 19.0596 10.2287 19.0596C10.0438 19.0596 9.95543 18.9605 9.71192 18.4799C9.55037 18.1611 9.38622 17.889 9.34714 17.8753C9.30805 17.8616 9.29779 18.2788 9.14542 18.6236C8.84485 19.3038 8.50414 19.2709 8.34489 18.859C8.29273 18.7241 8.1102 17.9315 7.93927 17.0976C7.60159 15.4503 7.61645 15.4016 7.55726 15.4608C7.53555 15.4825 7.38902 16.2015 7.19563 17.1065C6.82801 18.8269 6.62826 19.1934 6.49423 19.1934C6.36049 19.1934 6.20634 18.9575 5.98589 18.4153C5.87069 18.132 5.72765 17.9002 5.66802 17.9002C5.49557 17.9002 5.34988 18.7537 5.28791 19.3577L5.30064 19.9037L7.35108 19.9293C8.51662 19.9438 15.8155 19.7914 23.4342 19.8644L37.1758 19.9961L37.1758 19.5089Z" fill="#D1AF66"/>
<path d="M5.27156 19.341C5.27898 18.6959 5.52282 17.8472 5.70077 17.8472C5.7604 17.8472 5.90345 18.079 6.01865 18.3623C6.23909 18.9044 6.39325 19.1404 6.52699 19.1404C6.66101 19.1404 6.7822 18.7248 7.14982 17.0044C7.34321 16.0993 7.5192 15.3411 7.54092 15.3194C7.6001 15.2602 7.63435 15.3973 7.97203 17.0446C8.14296 17.8784 8.32549 18.671 8.37765 18.8059C8.5369 19.2178 8.73123 19.1044 9.0318 18.4243C9.18417 18.0795 9.34081 17.8086 9.37989 17.8223C9.41898 17.836 9.58313 18.1081 9.74467 18.4269C9.98819 18.9075 10.0765 19.0066 10.2615 19.0066C10.515 19.0066 10.4465 19.2306 11.0652 16.3757C11.2725 15.4192 11.4701 14.5848 11.5043 14.5215C11.5384 14.4582 11.7767 15.2997 12.0337 16.3914C12.5287 18.494 12.6341 18.8102 12.8544 18.8526C12.9924 18.8791 13.2372 18.0762 13.3845 17.7935C13.5058 17.5605 13.5164 17.5279 13.6667 17.8051C13.747 17.9533 13.8012 18.1522 13.8306 18.2472C13.8849 18.4223 14.1534 18.7836 14.3209 18.7836C14.427 18.7836 14.6976 17.676 14.9855 16.0635C15.3576 13.98 15.4592 13.6787 15.5497 14.3913C15.573 14.5753 15.7774 15.5446 16.0039 16.5454C16.5428 18.9268 16.7466 19.2426 17.1321 18.2931C17.2416 18.0233 17.3594 17.8026 17.3938 17.8026C17.4283 17.8026 17.5233 18.0148 17.6051 18.2741C17.6869 18.5334 17.8147 18.8244 17.8892 18.9207C18.023 19.0938 18.0264 19.0936 18.1909 18.9001C18.3438 18.7202 18.4853 18.1259 18.739 16.5986C18.8498 15.9314 19.0682 14.8266 19.1709 14.4136C19.2232 14.2032 19.2672 14.1451 19.3058 14.2353C19.37 14.3854 20.1496 17.6502 20.2535 18.2039C20.345 18.6918 20.4311 18.8728 20.5719 18.8728C20.7307 18.8728 20.9535 18.545 21.0586 18.1566C21.1054 17.9834 21.1989 17.7664 21.2662 17.6743C21.3786 17.5207 21.4067 17.554 21.6066 18.0784C21.8299 18.6639 22.0733 18.8473 22.2821 18.5873C22.3757 18.4708 22.8804 16.2314 22.9816 15.4838C23.0722 14.8147 23.3255 13.8222 23.3572 14.0123C23.5836 15.3697 24.236 18.4677 24.3196 18.582C24.4729 18.7916 24.6194 18.6507 24.9357 17.9892C25.0766 17.6945 25.2197 17.4705 25.2536 17.4915C25.2875 17.5124 25.4027 17.7693 25.5096 18.0623C25.6939 18.5675 25.9228 18.7866 26.1317 18.6576C26.1747 18.631 26.2375 18.3977 26.2711 18.1391C26.3264 17.7146 26.9756 14.6223 27.0996 14.193C27.13 14.0878 27.2317 14.4108 27.3524 14.9956C27.7902 17.1171 28.1246 18.4771 28.2366 18.5917C28.3971 18.7558 28.6344 18.5533 28.7669 18.2993C28.825 18.188 28.9094 17.9308 29.0155 17.751L29.2085 17.4241L29.3661 17.7694C29.4527 17.9594 29.5843 18.2653 29.6586 18.4492C29.7902 18.7755 30.0412 18.8996 30.1092 18.6722C30.3474 17.8764 30.4611 17.4224 30.7852 15.9743C30.9938 15.0424 31.1913 14.2498 31.2241 14.213C31.2569 14.1762 31.3492 14.4371 31.4293 14.7927C32.2835 18.5889 32.2896 18.608 32.6024 18.488C32.6776 18.4592 32.8258 18.2657 32.9317 18.0581L33.1244 17.6807L33.3369 18.0315C33.4537 18.2244 33.5495 18.4152 33.5498 18.4554C33.5508 18.6228 33.9586 18.4537 34.0586 18.2444C34.1183 18.1195 34.3169 17.3422 34.5001 16.5169L34.8331 15.0165L35.0393 15.763C35.1528 16.1735 35.3086 16.8483 35.3855 17.2625C35.5532 18.1659 35.724 18.6053 35.9075 18.6053C35.9821 18.6053 36.1915 18.3745 36.3729 18.0925C36.6864 17.6049 36.7058 17.5906 36.7665 17.8026C36.8016 17.9252 36.9154 18.2378 37.0194 18.4971C37.1315 18.7765 37.2086 19.1672 37.2086 19.4558V20.0148L5.26465 19.943L5.27156 19.341Z" fill="#FFCB2E"/>
<path d="M13.5218 28.3161L5.29792 28.3387C5.28722 27.8232 5.28853 27.3119 5.30488 26.8977C7.87916 27.3532 11.0707 27.8619 13.4936 28.1689M28.814 28.0594L37.115 26.9423V28.4585H29.2133L28.814 28.0594ZM28.3371 27.5497L28.2444 27.3602L37.01 24.4452L37.007 25.9172L28.3371 27.5497ZM13.7997 27.5564L5.30488 25.9043C5.28282 25.4054 5.29899 24.858 5.30196 24.3565L14.2724 27.2909M27.673 26.4387C30.9191 24.7659 33.967 23.2837 37.0621 21.8589L37.0035 23.5302C33.7654 24.611 30.7812 25.7017 27.8197 26.8015L27.673 26.4387ZM14.6552 26.7313L5.39411 23.5091L5.2948 21.8083L14.8738 26.6118M8.38328 22.2156C8.64766 22.2193 10.0382 22.2193 10.3698 22.2379L15.6298 25.8122L15.4232 26.036L8.38328 22.2156ZM26.7261 25.5211C28.5365 24.2825 29.9323 23.248 31.7221 22.0434L33.5042 22.1118C31.5848 23.1825 28.6042 24.9757 26.9303 25.8827M12.2201 22.2156C12.9039 22.1606 13.3853 22.1753 14.162 22.1264C14.9909 23.0389 15.8748 24.0892 16.6672 25.073L16.2449 25.2579C14.7444 24.1771 13.4149 23.1512 12.2201 22.2156ZM25.7161 24.6084C26.4887 23.7838 27.3021 22.9084 28.0309 22.1264L29.6546 22.1998L26.1547 25.0891M17.0819 24.5287C16.4204 23.7943 15.6359 22.8851 15.0754 22.1992L15.8629 22.2254C16.3993 22.9386 16.9893 23.7237 17.4744 24.4465M26.4871 22.1463L27.1214 22.1593L25.1248 24.4165L24.8356 24.1543M18.1526 24.1257C17.8151 23.6908 17.1384 22.6351 16.86 22.17C17.1031 22.1729 17.2763 22.1668 17.5322 22.1956C17.8142 22.7601 18.2415 23.54 18.5497 24.011M23.7468 23.6995C24.0069 23.21 24.3197 22.6079 24.5814 22.1624L25.2475 22.1759C24.8904 22.6734 24.472 23.4424 24.1821 23.8768M19.2732 23.7317L18.7181 22.1718C18.9038 22.1806 19.109 22.1828 19.3149 22.2006L19.499 23.676M23.4232 22.2479C23.2465 22.6278 23.0751 23.0194 22.8165 23.5362C22.6906 23.5512 22.5631 23.5241 22.5333 23.4759C22.6614 23.0645 22.775 22.532 22.8875 22.1702M21.0452 23.4419L20.8631 22.1684L21.598 22.1264L21.4412 23.3479" fill="#FFEC19"/>
<path d="M13.5884 43.81C12.7074 43.6702 11.8263 43.4963 10.9349 43.4638C9.98154 43.429 9.03125 43.6501 8.07756 43.6264C7.90132 43.622 7.64493 43.6159 7.55169 43.5702L7.19459 43.2862C7.38329 43.2387 8.25211 43.0428 8.79117 43.0049C10.4466 42.8882 12.1333 42.8806 13.7669 43.1729C14.1864 43.2479 14.8241 43.4856 14.9804 43.5755C15.2549 43.7333 15.2036 44.0591 14.9599 44.0666C14.782 44.0696 14.0478 43.8828 13.5884 43.81ZM27.8629 43.481C27.9107 43.4241 28.3349 43.3166 28.5746 43.2467C29.3066 43.0333 30.0408 42.8172 30.7912 42.6821C31.4083 42.571 32.0345 42.4695 32.6613 42.4815C33.6539 42.5006 35.4891 42.7963 35.6082 42.9124C35.6462 42.9494 35.4828 43.0266 35.3817 43.1181C35.2155 43.2684 33.9234 43.2139 33.1933 43.2409C32.6565 43.2608 32.1154 43.2065 31.582 43.2698C31.0386 43.3343 30.5128 43.5034 29.9794 43.6255C29.3597 43.7674 28.3541 44.0557 28.1232 44.0637C27.8002 44.0361 27.7879 43.6984 27.8629 43.481ZM19.5181 43.6039C19.0889 43.4961 18.4988 43.4797 18.6098 43.4176C18.6098 43.4176 19.5597 43.1115 20.0447 42.9961C20.4877 42.8907 21.2685 42.75 21.3885 42.7494C21.4253 42.7492 21.3829 42.8611 21.3829 43.0275C21.3829 43.1415 21.4793 43.3471 21.4182 43.4153C21.1188 43.4267 20.8522 43.4427 20.5703 43.4697C20.2183 43.5034 19.7302 43.651 19.5181 43.6039ZM21.5298 43.0608V42.7238C21.8145 42.7307 22.6755 42.7502 23.2328 42.8683C23.7371 42.9752 24.6451 43.1821 24.6943 43.3737C24.6943 43.4237 24.3713 43.4134 24.0212 43.4729C23.5954 43.4429 23.164 43.3749 22.7333 43.3628C22.3321 43.3515 21.9553 43.3683 21.5298 43.3978V43.0608ZM14.0792 42.5484C13.0388 42.4387 12.0019 42.2659 10.9562 42.2372C9.85622 42.2069 8.75707 42.3241 7.65831 42.3835C7.1998 42.4083 6.43107 42.6448 6.28356 42.4712L6.0556 42.2029C5.99528 42.1319 6.33237 41.9877 6.49473 41.9296C7.40139 41.6056 8.39832 41.6201 9.35903 41.5557C9.75668 41.529 10.1565 41.5336 10.5546 41.5507C11.6567 41.5978 12.7528 41.7382 13.8505 41.8471C14.6246 41.9238 15.3926 42.1 16.1705 42.0985C16.874 42.0972 17.5722 41.9679 18.2679 41.8634C18.9989 41.7536 19.7593 41.652 20.447 41.4522C21.4367 41.0265 21.3876 41.2513 21.3876 41.6078C21.3876 41.7568 21.5272 41.8857 21.3981 41.8997C21.3314 41.9069 21.1448 41.9686 21.0167 41.9975C20.3442 42.1492 19.6671 42.2816 18.9868 42.3935C18.0392 42.5494 17.0917 42.7657 16.1315 42.7766C15.4432 42.7844 14.7637 42.6206 14.0792 42.5484ZM25.9466 42.6432C25.2596 42.6175 24.5974 42.3778 23.9212 42.2538C23.3347 42.1463 22.753 41.9978 22.1589 41.9464C21.9556 41.9288 21.5466 41.9464 21.5466 41.9464L21.5224 41.5256C21.5586 40.7095 21.823 40.9012 22.6921 41.3103C23.3448 41.6176 23.0361 41.2863 23.3832 41.4344C23.6147 41.5331 24.3612 41.6316 24.8543 41.7053C25.5456 41.8085 26.2386 41.9543 26.9376 41.9446C27.6254 41.9351 28.3013 41.762 28.9804 41.6525C29.6452 41.5454 30.3001 41.3758 30.9687 41.2957C31.6725 41.2114 32.3828 41.1444 33.0913 41.1663C33.9105 41.1917 34.7413 41.2505 35.5315 41.4676C35.8879 41.5655 36.5875 41.8672 36.5467 41.913L36.3336 42.1524C36.1865 42.3176 35.5666 42.0531 35.1818 42.0147C34.395 41.9361 33.6078 41.8077 32.8173 41.825C31.9183 41.8446 31.0332 42.0509 30.1404 42.1581C28.7432 42.3258 27.3529 42.6957 25.9466 42.6432ZM14.1684 41.3124C13.0835 41.1827 12.0086 40.9392 10.9167 40.8993C9.72063 40.8556 8.51725 40.9304 7.33115 41.0908C6.72264 41.173 5.65288 41.7138 5.53163 41.4845L5.30235 41.0509C5.30121 40.8899 5.70703 40.7743 5.93705 40.6996C7.25524 40.2717 8.67798 40.2055 10.0639 40.1925C11.4122 40.1799 12.746 40.4717 14.0872 40.6107C14.7911 40.6837 15.4914 40.8385 16.1991 40.8289C16.8662 40.8199 17.5223 40.6574 18.1837 40.5696C18.7919 40.4889 19.9691 40.2878 20.0077 40.3238C20.1102 40.4192 19.928 40.8633 19.741 40.9629C19.3492 41.1716 17.1401 41.4997 16.1716 41.5368C15.249 41.5722 14.8356 41.3921 14.1684 41.3124ZM25.2283 41.2858C24.5494 41.1819 23.4214 40.9117 23.2338 40.7687C23.027 40.4731 23.0544 40.4224 23.0679 40.1427C23.0679 40.1427 23.4782 40.1754 23.6814 40.2064C24.143 40.2769 24.5926 40.4148 25.0543 40.4839C25.7342 40.5857 26.4198 40.7107 27.1067 40.6851C27.7652 40.6605 28.4028 40.4445 29.0544 40.3461C30.3913 40.1444 31.7257 39.8219 33.0777 39.8315C33.8596 39.837 34.6519 39.935 35.4 40.1621C35.9666 40.3341 37.0915 40.694 37.0009 40.9317L36.8737 41.2655C36.8737 41.2655 36.1946 41.0067 35.8414 40.9264C34.7671 40.6821 33.6656 40.4831 32.564 40.4988C31.6707 40.5116 30.7995 40.7806 29.9173 40.9214C28.9655 41.0734 28.0244 41.3253 27.062 41.3775C26.4509 41.4106 25.8333 41.3784 25.2283 41.2858ZM15.1053 40.2846C14.6227 40.2593 14.1561 40.1008 13.6777 40.0328C12.6899 39.8924 11.6994 39.7287 10.7018 39.7107C9.59479 39.6907 8.48731 39.8109 7.38866 39.9485C7.05714 39.9901 6.73302 40.0796 6.40209 40.1256C5.99949 40.1816 5.18871 40.2624 5.1886 40.2457L5.18473 39.6813C5.41373 39.5971 6.32185 39.4482 6.89626 39.368C7.99864 39.2139 9.10687 39.0492 10.22 39.0455C11.3768 39.0417 12.5269 39.2273 13.6763 39.3577C14.3979 39.4396 15.1088 39.6358 15.8348 39.6529C16.5501 39.6698 17.261 39.5343 17.973 39.4627C18.3999 39.4198 19.1836 39.2921 19.2521 39.3192C19.483 39.4106 19.8426 39.6761 19.7886 39.73C19.7592 39.7595 18.9546 39.9766 18.5263 40.0445C17.3973 40.2233 16.2469 40.3443 15.1053 40.2846ZM25.0376 40.0737C24.5039 39.9979 23.6 39.8252 23.4582 39.7266C23.3163 39.628 23.4352 39.4221 23.6664 39.2575C23.825 39.1446 24.189 39.1836 24.4511 39.1962C24.9242 39.219 25.3805 39.3847 25.8506 39.4423C26.2983 39.4973 26.7503 39.5658 27.2004 39.5371C27.88 39.4936 28.5327 39.2531 29.2035 39.1358C30.2979 38.9443 31.3893 38.6753 32.4999 38.6418C33.3228 38.6169 34.1555 38.6855 34.9602 38.8596C35.7095 39.0218 36.4654 39.2773 37.13 39.6222L37.0998 40.0201C37.0343 40.0469 36.7632 39.9678 36.5961 39.9351C35.7917 39.7775 35.0102 39.4946 34.1961 39.3992C33.377 39.3032 32.543 39.2851 31.7222 39.3654C31.2312 39.4134 30.759 39.5803 30.2742 39.672C29.2076 39.8737 28.1462 40.1535 27.062 40.2074C26.3866 40.2409 25.7071 40.1688 25.0376 40.0737ZM5.15201 38.5282C5.198 38.4084 7.63779 37.9595 8.90391 37.8473C9.72837 37.7743 10.5613 37.7963 11.387 37.8543C12.1859 37.9104 12.9705 38.0985 13.7669 38.1833C14.6756 38.2802 15.5875 38.4222 16.5007 38.3886C17.293 38.3594 18.0677 38.146 18.8529 38.0365C19.652 37.9252 20.9379 37.7317 21.2534 37.7267C21.569 37.7217 21.3503 37.8181 21.197 38.0369C21.1548 38.097 21.165 38.1154 21.0681 38.169C20.9711 38.2227 20.6998 38.2826 20.5135 38.3314C19.9196 38.4871 19.3245 38.6451 18.7191 38.7471C17.8047 38.9011 16.8803 39.0421 15.953 39.0421C15.1304 39.0421 14.3179 38.86 13.4992 38.7804C12.5037 38.6835 11.5102 38.5248 10.51 38.5175C9.3917 38.5094 8.27414 38.628 7.16395 38.7628C6.58851 38.8327 6.02197 38.9628 5.44959 39.0544C5.35698 39.0692 5.21454 39.1217 5.17134 39.0961L5.15201 38.5282ZM24.8787 38.8218C24.0238 38.6551 23.4831 38.4509 22.7861 38.2622C22.4943 38.1832 22.0498 38.1154 21.9112 38.0225C21.7727 37.9296 21.6981 37.8291 21.6981 37.7491C21.6981 37.6084 23.6682 37.9302 24.6528 38.0252C25.4558 38.1027 26.255 38.2989 27.061 38.2649C27.8472 38.2317 28.6041 37.953 29.3819 37.8341C30.4332 37.6734 31.4861 37.4578 32.5496 37.4526C33.4024 37.4485 34.2567 37.5651 35.0926 37.7339C35.7885 37.8745 37.1333 38.3035 37.1344 38.34L37.1466 38.7503C37.1502 38.871 36.1509 38.5943 35.6511 38.5304C34.6122 38.3975 33.5747 38.1777 32.5274 38.1904C31.5618 38.2021 30.6121 38.4382 29.656 38.5734C28.7754 38.698 27.906 38.9323 27.0174 38.968C26.3034 38.9966 25.4767 38.9362 24.8787 38.8218ZM13.4546 37.561C12.2541 37.4459 11.054 37.2707 9.84797 37.2733C8.92527 37.2752 8.00613 37.3987 7.08959 37.5051C6.44207 37.5803 5.15518 37.7922 5.15518 37.7922L5.14588 37.4524C5.13855 37.1846 6.32128 36.9689 6.94088 36.8471C8.01217 36.6366 9.11806 36.6296 10.2098 36.6412C11.3996 36.6538 12.5826 36.8255 13.7669 36.9412C14.5115 37.0139 15.2495 37.1987 15.9976 37.1889C16.7631 37.1789 17.5151 36.9842 18.2729 36.8758C19.2907 36.7303 20.296 36.4441 21.3239 36.423C22.4247 36.4004 23.5137 36.6541 24.6082 36.7734C25.3371 36.8528 26.0613 37.0323 26.7943 37.0167C27.5972 36.9995 28.3798 36.759 29.1752 36.6483C30.4462 36.4714 31.714 36.1145 32.9957 36.1757C34.2225 36.2343 35.4138 36.63 36.5927 36.9743C36.7878 37.0313 37.088 37.1187 37.1656 37.1833L37.1579 37.6516C37.1048 37.6516 36.2393 37.4469 35.7771 37.359C34.8439 37.1815 33.9164 36.9134 32.9668 36.8852C32.0645 36.8585 31.1699 37.0637 30.2742 37.1765C28.9923 37.338 27.7295 37.719 26.4374 37.7282C25.5677 37.7344 24.7125 37.5035 23.8498 37.3938C23.0004 37.2858 22.1572 37.0664 21.301 37.0751C20.6117 37.0821 19.9353 37.2648 19.2545 37.3732C18.2721 37.5297 17.3082 37.8518 16.3139 37.8814C15.3553 37.91 14.4093 37.6526 13.4546 37.561ZM15.1899 36.5398C13.6838 36.5332 12.2034 36.0816 10.6975 36.0547C9.16437 36.0273 7.63484 36.2301 6.10931 36.3846C5.78712 36.4173 5.14955 36.654 5.14599 36.5106L5.13597 36.1058C5.12887 35.8192 6.60983 35.6369 7.37126 35.5212C8.46039 35.3558 9.57149 35.3402 10.6727 35.37C11.6491 35.3963 12.6156 35.5747 13.5884 35.6619C14.3689 35.7318 15.1484 35.8632 15.9318 35.8472C16.7177 35.8312 17.4933 35.6653 18.2729 35.5655C19.2852 35.4359 20.2862 35.1667 21.3066 35.1538C22.3988 35.1399 23.4776 35.3955 24.5636 35.512C25.295 35.5904 26.0233 35.7637 26.7586 35.7414C27.5543 35.7172 28.3313 35.493 29.1143 35.3495C29.8602 35.2129 30.5895 34.9689 31.345 34.9029C32.2226 34.8263 33.1169 34.8283 33.9873 34.9645C34.8724 35.1031 35.7156 35.441 36.5649 35.7263C36.7719 35.7958 36.9736 35.8805 37.1779 35.9576L37.1745 36.409C36.9887 36.3909 36.0599 36.1278 35.4941 36.0292C34.4664 35.8501 33.4313 35.6356 32.3882 35.646C31.3758 35.6561 30.3847 35.939 29.3819 36.078C28.4605 36.2057 27.546 36.4547 26.6159 36.4472C25.357 36.4371 24.133 36.018 22.8809 35.8874C22.3326 35.8303 21.7807 35.7629 21.2301 35.7899C20.3687 35.832 19.5299 36.084 18.6745 36.194C17.5168 36.3429 16.3572 36.5448 15.1899 36.5398ZM13.4546 34.9921C12.4115 34.8899 11.3745 34.6955 10.3267 34.6718C9.18904 34.6461 8.05205 34.7672 6.91836 34.8656C6.32088 34.9175 5.40066 35.0669 5.13135 35.0745L5.13728 34.6207C5.24287 34.5382 6.14968 34.369 6.6654 34.2975C7.98195 34.1151 9.31488 34.0115 10.6439 34.031C11.6448 34.0457 12.6375 34.2151 13.633 34.3194C14.4064 34.4004 15.1736 34.5984 15.9509 34.5813C16.7042 34.5646 17.4365 34.3252 18.1837 34.2284C19.3251 34.0806 20.4681 33.8848 21.619 33.8806C22.5152 33.8773 23.4067 34.0199 24.2959 34.1318C24.9233 34.2108 25.5373 34.4253 26.1697 34.4281C27.0988 34.4322 28.0072 34.1524 28.9264 34.0172C29.9691 33.8638 31.0025 33.6121 32.0553 33.5631C32.6683 33.5346 33.2884 33.558 33.8939 33.6573C34.8496 33.8141 35.798 34.0681 36.6907 34.4434C36.8685 34.5182 37.1893 34.6114 37.1924 34.732L37.1995 35.0076C37.2021 35.1076 36.4717 34.904 36.1083 34.8489C34.9733 34.6767 33.8543 34.335 32.7066 34.3117C31.5462 34.2881 30.3968 34.5488 29.2481 34.7145C28.3669 34.8416 27.5062 35.1668 26.6159 35.1679C25.5563 35.1693 24.5358 34.7465 23.482 34.6363C22.736 34.5584 21.9834 34.5209 21.2337 34.5456C20.4998 34.5698 19.7722 34.6916 19.0431 34.7793C17.9634 34.9091 16.8969 35.1904 15.8096 35.2121C15.0213 35.2278 14.2393 35.0689 13.4546 34.9921ZM11.3031 33.162C10.4999 33.101 9.69183 33.1415 8.88655 33.1616C8.25459 33.1775 7.61902 33.1729 6.99247 33.2569C6.36171 33.3414 5.12755 33.6941 5.12774 33.6663L5.13137 33.1275C5.1324 32.9733 6.39373 32.7128 7.04759 32.6138C8.08005 32.4575 9.13451 32.4527 10.178 32.4929C11.2767 32.5353 12.3606 32.7635 13.4546 32.8735C14.1525 32.9436 14.8501 33.0624 15.5515 33.0516C16.5395 33.0364 17.5155 32.8322 18.496 32.7099C19.4345 32.5928 20.3625 32.3352 21.3082 32.3344C22.3427 32.3334 23.3588 32.61 24.3851 32.7396C25.0093 32.8184 25.6298 32.9745 26.2589 32.9659C27.1084 32.9543 27.9378 32.703 28.78 32.5912C30.0918 32.4172 31.4012 32.0715 32.7232 32.1307C33.9209 32.1843 35.084 32.5628 36.2441 32.8654C36.5693 32.9502 37.0886 33.094 37.206 33.1677L37.199 33.6743C37.0878 33.685 36.6276 33.535 36.3387 33.4813C34.8232 33.1998 33.3052 32.7802 31.7639 32.8055C30.9176 32.8194 30.1008 33.1224 29.2655 33.2588C28.3657 33.4057 27.4705 33.6517 26.5588 33.652C25.3794 33.6523 24.2295 33.2745 23.0572 33.1455C22.3695 33.0699 21.6789 32.9612 20.9876 32.9889C20.1589 33.0222 19.351 33.2591 18.5299 33.3748C17.5801 33.5087 16.6337 33.7234 15.6745 33.7314C14.9395 33.7374 14.211 33.5892 13.4821 33.4943C12.7535 33.3994 12.0358 33.2176 11.3031 33.162ZM5.11168 29.4607H37.2341V31.4227L5.1084 31.4788L5.11168 29.4607Z" fill="#006BBD"/>
<path d="M21.6255 37.5073C21.9404 38.1481 22.8257 38.8877 23.5663 38.9343C23.6811 38.9343 23.8376 38.9582 23.9139 38.9875C24.0681 39.0466 24.0988 39.0005 23.4505 39.6838C23.096 40.0575 23.0715 40.114 23.1288 40.4254C23.1083 40.82 23.6938 41.2581 23.5696 41.6049C23.5273 41.6733 22.5825 41.4555 22.0593 41.2567C21.552 41.0639 21.559 41.0458 21.559 42.5462C21.559 42.9773 21.5735 44.1709 21.5582 44.4087C21.5468 44.6545 21.5079 44.4481 21.4807 44.4281C21.4535 44.4081 21.4379 44.5745 21.4272 44.4198C21.4119 44.1894 21.3805 43.007 21.3805 42.5908C21.3805 41.855 21.3466 41.253 21.3053 41.253C21.2639 41.253 20.9966 41.3333 20.7113 41.4314C20.1213 41.6343 19.69 41.6621 19.6749 41.4983C19.6541 41.2723 19.6999 41.0668 19.8242 40.8285C19.8944 40.6941 19.952 40.4718 19.9523 40.3345C19.8722 39.6422 19.6619 39.6413 19.2836 39.3312C19.0599 39.1465 19.0379 39.0959 19.1498 39.0236C19.2234 38.976 19.4453 38.9364 19.6428 38.9356C20.904 38.9429 20.9628 37.8819 21.6255 37.5073ZM20.6342 40.9653C21.4216 40.6904 21.4742 40.751 22.4621 41.0227C23.2766 41.2467 23.0884 41.3273 22.9292 41.1265C22.7647 40.9192 22.8073 40.1893 22.8646 40.0087C22.8957 39.911 22.9273 39.6197 23.1207 39.4542C23.3142 39.2887 22.8643 39.2075 22.8643 39.1809C22.8643 39.1543 23.4761 39.2566 23.2948 39.2226C22.7795 39.126 22.1038 38.7821 21.8552 38.3375L21.6741 38.0752L21.3164 38.4889C20.9024 38.9677 20.5597 39.2798 20.0636 39.2798C19.9496 39.2798 19.826 39.3645 19.826 39.3938C19.826 39.423 19.8824 39.404 20.0815 39.6301C20.3776 39.9662 20.4168 40.0977 20.3652 40.2832C20.3306 40.4081 20.33 40.6079 20.3268 40.6901C20.3237 40.7723 20.4465 40.9143 20.2163 40.7574C20.1658 40.723 20.1829 40.9114 20.1829 41.1254C20.1829 41.2409 19.9334 41.2101 20.6342 40.9653ZM21.1879 40.2785L20.9333 39.7729L21.1065 39.4874C21.2235 39.2944 21.5328 39.0043 21.5822 39.0043C21.7339 39.0043 22.4826 39.777 22.4137 39.8712C22.3781 39.92 22.1573 40.1896 21.987 40.296L21.5945 40.5409L21.1879 40.2785Z" fill="black"/>
<path d="M19.9733 41.2704C19.9733 41.2368 20.0383 40.9777 20.1178 40.6946C20.2896 40.0825 20.2418 39.8299 19.8869 39.4752L19.6221 39.2104L20.0117 39.1521C20.4695 39.0834 21.0916 38.6883 21.3879 38.2779L21.5979 37.9871L22.0571 38.4332C22.3941 38.7607 22.6549 38.9228 23.0372 39.0423L23.5581 39.2051L23.2353 39.5278C22.7626 40.0003 22.7521 40.1817 23.1404 41.168C23.1918 41.2986 23.1191 41.2916 22.5454 41.1107C21.5888 40.8091 21.5998 40.8093 20.7819 41.0812C19.9377 41.3618 19.9733 41.3535 19.9733 41.2704ZM22.2857 39.8196C22.2941 39.6749 21.7731 39.1019 21.6331 39.1019C21.5118 39.1019 20.9546 39.648 20.9556 39.7659C20.956 39.8176 21.1003 40.0117 21.2762 40.1972L21.596 40.5345L21.9371 40.2418C22.1247 40.0808 22.2815 39.8908 22.2857 39.8196Z" fill="white"/>
<path d="M15.5437 44.9675C15.1579 44.8555 14.9243 44.497 14.9072 44.1529C14.8875 43.7566 15.1923 43.3316 15.5436 43.1468C16.2174 42.7925 17.0694 43.1493 17.826 43.2341C18.1519 43.2707 18.476 43.3315 18.7931 43.4153C19.6046 43.6296 20.3854 43.9472 21.1741 44.2341C21.2863 44.275 21.4388 44.3713 21.5086 44.3626C21.5784 44.3539 21.7115 44.2015 21.829 44.1506C23.2923 43.5165 24.8909 43.121 26.484 43.0441C26.8018 43.0288 27.1374 43.0485 27.4295 43.1744C27.6295 43.2606 27.8734 43.376 27.9386 43.5837C28.0762 44.0225 28.0622 44.6501 27.5495 44.9071C27.2625 45.051 26.796 45.0624 21.5285 45.0552C18.3881 45.0508 15.6949 45.0113 15.5437 44.9675Z" fill="#00A857"/>
<path d="M14.3662 28.6763C14.3662 28.5862 15.2172 27.6383 15.6985 27.1727C16.0964 26.7879 16.5289 26.4379 16.9775 26.1135C17.4252 25.7898 17.8751 25.4535 18.3815 25.2323C19.2944 24.8337 20.2716 24.4872 21.2673 24.4554C22.1364 24.4276 23.034 24.6091 23.8245 24.9713C24.9137 25.4703 25.7534 26.396 26.6633 27.1752C27.168 27.6074 28.0674 28.5267 28.1133 28.543" fill="#00A857"/>
<path d="M34.9626 54.1043C33.9697 53.5261 31.0737 52.6463 30.1632 52.6463H29.6919L29.5336 52.062C29.4466 51.7406 29.3116 51.4442 29.2337 51.4033C29.056 51.3099 26.6004 50.9088 25.1214 50.7315C21.5379 50.3018 18.0987 50.4073 14.1462 51.0681L12.9416 51.2694L12.7709 51.9205L12.6002 52.5715L12.306 52.5164C11.6839 52.3997 9.23138 53.083 7.64838 53.814C7.23332 54.0056 6.88666 54.1624 6.87802 54.1624C6.85653 54.1624 7.17225 52.0245 7.22905 51.7854C7.26701 51.6256 7.12547 51.4833 6.38598 50.9381C5.89721 50.5778 5.49589 50.2613 5.49416 50.2348C5.48854 50.1487 6.76137 49.638 7.74041 49.3336C8.61404 49.062 8.69185 49.02 8.64768 48.8441C8.58892 48.6101 8.59936 48.6063 10.8001 48.0584C12.4979 47.6358 14.8489 47.2088 16.5554 47.0131C18.0925 46.8368 22.5853 46.8629 24.2737 47.0579C27.107 47.3852 30.1094 47.9679 33.3557 48.8204C33.591 48.8822 33.6856 48.9528 33.668 49.0534C33.6486 49.1643 33.8289 49.2526 34.4458 49.4343C35.1745 49.6488 36.4206 50.1339 36.698 50.311C36.7724 50.3585 36.516 50.5983 35.9148 51.0435L35.0208 51.7053L35.0793 52.1089C35.1114 52.3309 35.2069 52.9239 35.2914 53.4267C35.3759 53.9294 35.421 54.3368 35.3916 54.3319C35.3621 54.327 35.1691 54.2246 34.9626 54.1043ZM35.1147 53.7834C35.1145 53.6899 34.9848 52.8684 34.8056 51.8253C34.7683 51.6086 34.8412 51.5283 35.5195 51.0388C35.935 50.739 36.275 50.4613 36.275 50.4216C36.275 50.2802 34.3388 49.5629 33.8027 49.5056C33.5665 49.4804 33.564 49.4864 33.3362 50.6397C33.2103 51.2773 33.1072 51.8593 33.1073 51.9328C33.1073 52.0335 32.8586 52.11 32.1035 52.2417C31.5514 52.338 31.0997 52.444 31.0997 52.4774C31.0997 52.5107 31.3908 52.6083 31.7466 52.6943C32.5727 52.8939 34.0176 53.3923 34.5607 53.665C35.0632 53.9172 35.1151 53.9283 35.1147 53.7834ZM7.99187 53.4086C8.72528 53.0863 10.2051 52.6074 10.7788 52.5067C10.9634 52.4742 11.1339 52.4163 11.1576 52.3778C11.2029 52.3046 9.8103 52.0215 9.40631 52.0218C9.1742 52.022 9.17091 52.0124 8.96322 50.7187C8.8372 49.9337 8.70989 49.3984 8.64315 49.3728C8.50689 49.3206 6.94173 49.8055 6.3569 50.0812L5.92896 50.2829L6.72494 50.8776L7.52092 51.4722L7.40112 52.2153C7.18192 53.5751 7.16568 53.7165 7.2287 53.7165C7.26313 53.7165 7.60656 53.578 7.99187 53.4086ZM30.9786 52.2414C32.0315 52.0351 32.1056 52.0167 32.0622 51.9732C32.0006 51.9118 29.7652 51.4702 29.6806 51.5028C29.6397 51.5186 29.6624 51.7221 29.731 51.9551C29.8764 52.4483 29.8976 52.4532 30.9786 52.2414ZM12.526 51.9448C12.7164 51.3095 12.7521 51.3222 11.4694 51.568C10.8314 51.6903 10.3094 51.8185 10.3094 51.8528C10.3094 51.9075 11.9008 52.2518 12.2806 52.2793C12.3721 52.2859 12.4594 52.1668 12.526 51.9448ZM33.1023 50.6174C33.2353 49.9429 33.3511 49.3147 33.3596 49.2213C33.378 49.0193 33.4618 49.0456 30.9212 48.4566C24.3396 46.9309 19.2017 46.6924 13.7893 47.6612C12.2295 47.9405 9.09145 48.6819 8.95056 48.8045C8.89645 48.8516 9.29869 51.6559 9.37099 51.7357C9.38386 51.7499 10.2929 51.5801 11.3911 51.3583C15.4963 50.5293 17.6846 50.282 20.883 50.2857C24.1229 50.2893 26.7678 50.6088 31.1443 51.5252C31.9295 51.6897 32.6369 51.8286 32.7162 51.8339C32.8318 51.8417 32.9084 51.6001 33.1023 50.6174Z" fill="black"/>
<path d="M9.76171 51.13L9.32812 49.4452L9.96398 49.2817C10.0759 49.253 10.1627 49.2363 10.2245 49.2319C10.3109 49.2244 10.387 49.2328 10.4529 49.2571C10.5188 49.2814 10.5778 49.324 10.6299 49.385C10.6819 49.4459 10.7187 49.5182 10.7402 49.6017C10.777 49.745 10.7626 49.8779 10.697 50.0006C10.6313 50.1233 10.4792 50.2152 10.2408 50.2765L9.8085 50.3877L9.98477 51.0726L9.76171 51.13ZM9.75733 50.1889L10.1931 50.0768C10.3372 50.0398 10.4327 49.9867 10.4794 49.9175C10.5262 49.8483 10.537 49.765 10.512 49.6677C10.4938 49.5972 10.4605 49.5415 10.4119 49.5004C10.3634 49.4594 10.3079 49.4384 10.2455 49.4373C10.2054 49.437 10.1347 49.4498 10.0335 49.4758L9.60236 49.5867L9.75733 50.1889Z" fill="black"/>
<path d="M11.3413 50.7315L10.9736 49.0311L12.2037 48.7654L12.2471 48.966L11.2422 49.1831L11.3548 49.7039L12.2959 49.5006L12.339 49.7001L11.3979 49.9034L11.5231 50.4822L12.5675 50.2566L12.6109 50.4572L11.3413 50.7315Z" fill="black"/>
<path d="M12.9167 50.4002L12.6104 48.6877L12.8371 48.6472L13.1073 50.1576L13.9511 50.0068L13.9873 50.2089L12.9167 50.4002Z" fill="black"/>
<path d="M14.264 50.1639L14.0195 48.4415L15.2655 48.2649L15.2944 48.4681L14.2764 48.6125L14.3513 49.14L15.3046 49.0048L15.3333 49.2069L14.38 49.3421L14.4632 49.9283L15.5211 49.7784L15.5499 49.9816L14.264 50.1639Z" fill="black"/>
<path d="M15.8605 49.9412L15.6924 48.2097L16.0374 48.1762L16.5665 49.3624C16.6155 49.4729 16.6513 49.5557 16.6742 49.6107C16.6877 49.5458 16.7095 49.4503 16.7394 49.3242L17.0372 48.0792L17.3456 48.0493L17.5137 49.7808L17.2928 49.8022L17.152 48.353L16.7894 49.8511L16.5826 49.8711L15.9384 48.4457L16.0815 49.9198L15.8605 49.9412Z" fill="black"/>
<path d="M17.8782 49.7578L17.7861 48.0206L18.4382 47.9861C18.571 47.9791 18.6784 47.991 18.7605 48.0219C18.8426 48.0528 18.9083 48.1036 18.9576 48.1743C19.0069 48.2449 19.0337 48.3202 19.038 48.4C19.0419 48.4742 19.0254 48.5452 18.9886 48.6129C18.9518 48.6806 18.8937 48.7368 18.8144 48.7814C18.9212 48.8066 19.0048 48.8548 19.0652 48.9261C19.1257 48.9974 19.1586 49.0836 19.164 49.1847C19.1683 49.2661 19.1551 49.3426 19.1244 49.4144C19.0937 49.4861 19.0541 49.5423 19.0055 49.5829C18.9569 49.6234 18.895 49.6554 18.8198 49.6788C18.7445 49.7022 18.6516 49.7169 18.5409 49.7227L17.8782 49.7578ZM18.0548 48.7384L18.4307 48.7185C18.5326 48.7131 18.6054 48.7025 18.6489 48.6867C18.7065 48.6663 18.749 48.6351 18.7765 48.5932C18.804 48.5514 18.8162 48.5 18.8129 48.4392C18.8099 48.3815 18.7934 48.3315 18.7634 48.2891C18.7334 48.2467 18.6923 48.2188 18.6401 48.2053C18.5878 48.1919 18.4993 48.1884 18.3744 48.195L18.027 48.2134L18.0548 48.7384ZM18.0973 49.5406L18.5301 49.5177C18.6044 49.5138 18.6564 49.5083 18.6861 49.5011C18.7386 49.4888 18.782 49.4707 18.8164 49.4467C18.8508 49.4227 18.8783 49.389 18.899 49.3455C18.9197 49.302 18.9286 49.2526 18.9256 49.1973C18.9222 49.1325 18.9026 49.0771 18.8669 49.0311C18.8312 48.9851 18.7834 48.9539 18.7234 48.9377C18.6635 48.9214 18.5783 48.9162 18.4676 48.9221L18.0657 48.9434L18.0973 49.5406Z" fill="black"/>
<path d="M19.3184 49.6816L19.9617 47.9325L20.2098 47.929L20.9471 49.6582L20.6847 49.6619L20.4742 49.138L19.7465 49.1485L19.5629 49.6781L19.3184 49.6816ZM19.8102 48.9601L20.4002 48.9516L20.2117 48.4725C20.1542 48.3269 20.1113 48.2073 20.083 48.1135C20.0625 48.2254 20.0328 48.3366 19.994 48.4471L19.8102 48.9601Z" fill="black"/>
<path d="M21.1318 49.6617L21.1755 47.9226L21.4117 47.9285L22.2913 49.3169L22.3256 47.9515L22.5464 47.957L22.5027 49.6961L22.2665 49.6902L21.3869 48.3006L21.3526 49.6672L21.1318 49.6617Z" fill="black"/>
<path d="M23.7491 49.0859L23.7627 48.8822L24.4984 48.9302L24.4553 49.5743C24.3364 49.6567 24.2154 49.7166 24.0923 49.754C23.9692 49.7914 23.8445 49.8058 23.7182 49.7974C23.5476 49.786 23.395 49.7391 23.2605 49.6568C23.126 49.5745 23.0278 49.4619 22.966 49.319C22.9042 49.1761 22.879 49.0194 22.8904 48.8489C22.9017 48.68 22.9475 48.5247 23.028 48.383C23.1085 48.2413 23.2174 48.1394 23.3549 48.0772C23.4923 48.015 23.6475 47.9897 23.8204 48.0013C23.946 48.0096 24.0582 48.0376 24.1569 48.085C24.2557 48.1324 24.3315 48.1944 24.3843 48.2708C24.4371 48.3473 24.4746 48.445 24.4968 48.5638L24.2856 48.6068C24.2655 48.5166 24.2378 48.445 24.2025 48.3919C24.1671 48.3388 24.1146 48.2946 24.0447 48.2595C23.9749 48.2243 23.8961 48.2037 23.8085 48.1979C23.7034 48.1909 23.6116 48.2008 23.5328 48.2276C23.4541 48.2545 23.3895 48.2924 23.339 48.3413C23.2885 48.3903 23.2482 48.4451 23.2179 48.5057C23.1665 48.6101 23.1366 48.725 23.1282 48.8505C23.1179 49.0053 23.1359 49.1365 23.1822 49.2442C23.2286 49.352 23.301 49.4345 23.3995 49.4919C23.498 49.5492 23.6045 49.5817 23.719 49.5893C23.8185 49.596 23.9169 49.5833 24.0142 49.5514C24.1116 49.5194 24.1862 49.4834 24.238 49.4432L24.2597 49.12L23.7491 49.0859Z" fill="black"/>
<path d="M25.4473 49.9147L25.659 48.188L26.2542 48.2609C26.3885 48.2774 26.49 48.2982 26.5587 48.3233C26.6549 48.3582 26.7343 48.4098 26.7969 48.478C26.8786 48.5662 26.9347 48.6729 26.9652 48.7981C26.9956 48.9234 27.0014 49.063 26.9826 49.2169C26.9665 49.348 26.9369 49.4624 26.8938 49.5599C26.8508 49.6575 26.8012 49.7365 26.7452 49.7969C26.6891 49.8574 26.6303 49.9032 26.5686 49.9343C26.507 49.9654 26.4347 49.9859 26.3518 49.9956C26.2689 50.0054 26.1751 50.0039 26.0707 49.9911L25.4473 49.9147ZM25.7009 49.7389L26.0697 49.7841C26.1836 49.7981 26.2743 49.7984 26.3417 49.7852C26.4091 49.7719 26.4644 49.7484 26.5077 49.7147C26.5685 49.6671 26.6197 49.5995 26.6611 49.5117C26.7026 49.4239 26.7313 49.3149 26.7473 49.1845C26.7695 49.0039 26.7568 48.8615 26.7094 48.7572C26.662 48.653 26.5979 48.5792 26.5171 48.5358C26.4587 48.5048 26.3615 48.4809 26.2256 48.4642L25.8627 48.4198L25.7009 49.7389Z" fill="black"/>
<path d="M27.1494 49.633L27.3591 49.6367C27.3442 49.7689 27.3549 49.8626 27.3912 49.9178C27.4275 49.9731 27.4844 50.0067 27.5618 50.0187C27.6189 50.0275 27.6702 50.0221 27.7157 50.0023C27.7612 49.9825 27.7953 49.9514 27.8179 49.9089C27.8405 49.8663 27.8595 49.7958 27.8747 49.6973L28.0583 48.5129L28.286 48.5482L28.1044 49.7197C28.0821 49.8635 28.0474 49.9722 28.0003 50.0458C27.9533 50.1194 27.8888 50.171 27.8069 50.2008C27.725 50.2305 27.6332 50.2375 27.5315 50.2218C27.3806 50.1984 27.2717 50.1371 27.205 50.0379C27.1383 49.9387 27.1198 49.8038 27.1494 49.633Z" fill="black"/>
<path d="M28.2031 50.2927L29.1773 48.7039L29.4213 48.749L29.8048 50.5892L29.5468 50.5415L29.4432 49.9864L28.7276 49.854L28.4436 50.3372L28.2031 50.2927ZM28.8271 49.6817L29.4073 49.7891L29.3165 49.2823C29.2886 49.1283 29.2701 49.0026 29.2608 48.9052C29.2187 49.0108 29.1677 49.114 29.108 49.2148L28.8271 49.6817Z" fill="black"/>
<path d="M29.9755 50.1242L30.1846 50.14C30.1621 50.2711 30.1673 50.3652 30.2004 50.4225C30.2334 50.4798 30.2882 50.5166 30.3648 50.5331C30.4213 50.5452 30.4728 50.5427 30.5194 50.5256C30.566 50.5085 30.6018 50.4794 30.6268 50.4383C30.6519 50.3971 30.6749 50.3278 30.6958 50.2304L30.9478 49.0586L31.173 49.107L30.9238 50.266C30.8932 50.4083 30.8522 50.5148 30.801 50.5855C30.7498 50.6562 30.6824 50.7041 30.5989 50.729C30.5154 50.754 30.4234 50.7556 30.3228 50.734C30.1735 50.702 30.0684 50.6345 30.0075 50.5316C29.9466 50.4287 29.936 50.2929 29.9755 50.1242Z" fill="black"/>
<path d="M30.9883 50.8439L32.0502 49.3123L32.2913 49.371L32.5708 51.2299L32.3159 51.1677L32.2436 50.6077L31.5365 50.4353L31.2259 50.9019L30.9883 50.8439ZM31.6456 50.2689L32.2188 50.4087L32.1566 49.8976C32.1375 49.7423 32.126 49.6158 32.1222 49.5179C32.0742 49.621 32.0176 49.7212 31.9523 49.8185L31.6456 50.2689Z" fill="black"/>
</g>
<path d="M66.1867 48.6426L66.1471 48.1275C66.9131 48.1275 67.4634 47.9955 67.798 47.7313C68.1325 47.4672 68.2998 47.027 68.2998 46.4106C68.2998 45.1692 67.7187 44.5485 66.5565 44.5485C66.3716 44.5485 66.1339 44.5705 65.8433 44.6145L65.7113 46.5691V49.3426L65.8962 51.9443H64.417L64.6019 49.3294V45.7767L64.3642 44.0334C65.4559 43.8485 66.2792 43.7561 66.8339 43.7561C68.674 43.7561 69.5941 44.5969 69.5941 46.2786C69.5941 46.9653 69.4092 47.52 69.0394 47.9426C68.6784 48.3565 68.159 48.6118 67.481 48.7086L66.1867 48.6426ZM83.9696 52.1424C83.4061 52.1424 82.9703 51.9928 82.6621 51.6934C82.3628 51.3852 82.2131 50.967 82.2131 50.4387C82.2131 49.9105 82.4288 49.5187 82.8602 49.2633C83.2917 49.008 84.1985 48.7527 85.5809 48.4973C85.5809 47.8282 85.506 47.3659 85.3563 47.1106C85.2067 46.8553 84.9381 46.7276 84.5507 46.7276C84.3394 46.7276 84.1721 46.7364 84.0489 46.754L82.9395 47.7313L82.3452 46.7408C83.0231 46.2037 83.7803 45.9352 84.6168 45.9352C85.9991 45.9352 86.6902 46.6308 86.6902 48.0219V50.4652L86.928 51.9575L85.6997 52.1424L85.6469 51.4821C85.101 51.9223 84.5419 52.1424 83.9696 52.1424ZM83.3357 50.3859C83.3357 50.6765 83.4237 50.9054 83.5998 51.0727C83.7847 51.24 84.0665 51.3236 84.4451 51.3236C84.8325 51.3236 85.2111 51.1871 85.5809 50.9142V49.2501C84.7356 49.3734 84.018 49.5627 83.4281 49.818C83.3665 50.0557 83.3357 50.245 83.3357 50.3859ZM100.044 51.9443L100.229 49.3294V44.456L100.031 43.0957L101.457 42.9636L101.312 45.5522V49.3426L101.457 51.9443H100.044ZM117.215 52.1424C116.423 52.1424 115.776 51.8783 115.274 51.35C114.772 50.8217 114.521 50.0954 114.521 49.1709C114.521 48.2376 114.776 47.4672 115.287 46.8597C115.798 46.2522 116.418 45.9484 117.149 45.9484C117.889 45.9484 118.443 46.1289 118.813 46.4899C119.183 46.8509 119.368 47.3571 119.368 48.0087C119.368 48.2464 119.346 48.5326 119.302 48.8671L115.736 48.986C115.736 49.7344 115.864 50.3155 116.119 50.7293C116.383 51.1343 116.753 51.3368 117.228 51.3368C117.854 51.3368 118.43 51.1123 118.959 50.6633L119.315 51.6406C118.716 51.9752 118.016 52.1424 117.215 52.1424ZM115.762 48.2992L118.166 48.1936C118.157 47.6565 118.069 47.2823 117.902 47.071C117.735 46.8597 117.462 46.754 117.083 46.754C116.705 46.754 116.41 46.7936 116.198 46.8729C115.978 47.1106 115.833 47.5861 115.762 48.2992ZM137.076 47.3483L137.102 47.771V51.9443L135.808 52.0104L135.993 49.1445V47.7577C135.993 47.432 135.94 47.2031 135.834 47.071C135.737 46.9301 135.57 46.8597 135.332 46.8597C134.795 46.8597 134.236 47.0226 133.655 47.3483V51.9443H132.387L132.572 49.3294V47.4672L132.374 46.1069L133.655 45.9748V46.6484C134.36 46.1817 135.059 45.9484 135.755 45.9484C136.319 45.9484 136.71 46.2081 136.93 46.7276C137.705 46.2081 138.454 45.9484 139.176 45.9484C139.616 45.9484 139.95 46.1069 140.179 46.4238C140.408 46.732 140.523 47.181 140.523 47.771V51.9443L139.228 52.0104L139.413 49.1445V47.7577C139.413 47.432 139.361 47.2031 139.255 47.071C139.158 46.9301 138.991 46.8597 138.753 46.8597C138.216 46.8597 137.657 47.0226 137.076 47.3483ZM153.873 51.8519L154.058 49.2369V44.456L153.86 43.0957L155.326 42.9636L155.141 45.5786V46.5691C155.651 46.1553 156.215 45.9484 156.831 45.9484C157.447 45.9484 157.936 46.1993 158.297 46.7012C158.658 47.1943 158.839 47.8634 158.839 48.7086C158.839 49.7564 158.557 50.5928 157.993 51.218C157.439 51.8343 156.69 52.1424 155.748 52.1424C155.105 52.1424 154.48 52.0456 153.873 51.8519ZM155.141 51.1915C155.334 51.2884 155.625 51.3368 156.012 51.3368C156.4 51.3368 156.774 51.2928 157.135 51.2047C157.461 50.8085 157.624 50.1086 157.624 49.1049C157.624 47.6081 157.232 46.8597 156.448 46.8597C156.025 46.8597 155.59 46.9653 155.141 47.1766V51.1915ZM173.276 52.1424C172.713 52.1424 172.277 51.9928 171.969 51.6934C171.669 51.3852 171.52 50.967 171.52 50.4387C171.52 49.9105 171.735 49.5187 172.167 49.2633C172.598 49.008 173.505 48.7527 174.887 48.4973C174.887 47.8282 174.813 47.3659 174.663 47.1106C174.513 46.8553 174.245 46.7276 173.857 46.7276C173.646 46.7276 173.479 46.7364 173.355 46.754L172.246 47.7313L171.652 46.7408C172.33 46.2037 173.087 45.9352 173.923 45.9352C175.306 45.9352 175.997 46.6308 175.997 48.0219V50.4652L176.235 51.9575L175.006 52.1424L174.953 51.4821C174.408 51.9223 173.848 52.1424 173.276 52.1424ZM172.642 50.3859C172.642 50.6765 172.73 50.9054 172.906 51.0727C173.091 51.24 173.373 51.3236 173.752 51.3236C174.139 51.3236 174.518 51.1871 174.887 50.9142V49.2501C174.042 49.3734 173.325 49.5627 172.735 49.818C172.673 50.0557 172.642 50.245 172.642 50.3859ZM189.35 51.9443L189.535 49.3294V47.4672L189.337 46.1069L190.618 45.9748V46.6484C191.331 46.1817 192.049 45.9484 192.771 45.9484C193.22 45.9484 193.563 46.1069 193.801 46.4238C194.039 46.732 194.158 47.181 194.158 47.771V51.9443L192.863 52.0104L193.048 49.1709V47.7577C193.048 47.432 192.995 47.2031 192.89 47.071C192.784 46.9301 192.608 46.8597 192.362 46.8597C191.824 46.8597 191.243 47.0226 190.618 47.3483V51.9443H189.35ZM207.667 50.8878C207.667 50.7381 207.706 50.5972 207.786 50.4652C207.865 50.3243 208.041 50.0866 208.314 49.752C207.715 49.4262 207.416 48.8671 207.416 48.0747C207.416 47.4144 207.627 46.8949 208.05 46.5163C208.481 46.1377 209.018 45.9484 209.661 45.9484C210.313 45.9484 210.806 46.0497 211.14 46.2522L212.844 45.9352L212.712 46.9125L211.774 46.8597C211.941 47.159 212.025 47.5068 212.025 47.903C212.025 48.5634 211.809 49.0828 211.378 49.4614C210.955 49.84 210.37 50.0293 209.621 50.0293C209.348 50.0293 209.093 50.0029 208.855 49.9501L208.512 50.6633C208.679 50.7865 208.877 50.879 209.106 50.9406C209.344 50.9934 209.758 51.0507 210.348 51.1123L211.365 51.2312C212.175 51.3368 212.58 51.7682 212.58 52.5254C212.58 53.2034 212.289 53.7581 211.708 54.1895C211.136 54.6209 210.392 54.8366 209.476 54.8366C208.781 54.8366 208.23 54.7002 207.825 54.4272C207.429 54.1543 207.231 53.7801 207.231 53.3046C207.231 52.6795 207.579 52.1556 208.274 51.733C207.869 51.5217 207.667 51.24 207.667 50.8878ZM208.301 53.0009C208.301 53.7317 208.838 54.0971 209.912 54.0971C210.995 54.0971 211.536 53.7141 211.536 52.9481C211.536 52.7368 211.51 52.5563 211.457 52.4066L208.737 51.9179C208.446 52.1909 208.301 52.5519 208.301 53.0009ZM208.565 47.9691C208.565 48.8495 208.952 49.2897 209.727 49.2897C210.511 49.2897 210.902 48.8495 210.902 47.9691C210.902 47.52 210.801 47.1943 210.599 46.9917C210.405 46.7892 210.128 46.688 209.767 46.688C209.406 46.688 209.098 46.7276 208.842 46.8068C208.657 47.027 208.565 47.4144 208.565 47.9691ZM241.344 46.5691V47.4012H242.612L243.866 47.2691L243.761 48.2596H241.344V49.3426L241.463 51.0199H243.206L244.646 50.8614L244.514 52.0236L243.074 51.9443H241.529L240.05 52.0236L240.235 49.3294V46.5559L240.05 43.9542H244.527L244.408 45.0371L242.929 44.8786H241.463L241.344 46.5691ZM264.344 51.9443L264.397 49.3294L264.199 45.9748L261.967 51.0199L261.597 51.0595L258.995 45.9748L258.85 49.3426L258.943 51.9443H257.635L257.952 49.3294L258.097 46.5559L258.005 43.9938L259.378 43.9409L259.616 44.8126L261.835 49.3954L263.829 44.6145L263.974 43.9806L265.374 43.9277L265.282 46.5691L265.427 49.3426L265.744 51.9443H264.344ZM278.214 51.9575L281.027 44.8918L281.278 43.9806L282.321 43.9013L285.227 51.9443H283.682L283.285 49.9501H280.023L279.548 51.9575H278.214ZM281.727 45.2484L280.393 49.0256H282.982L281.727 45.2484ZM297.572 51.7198L298.021 50.3859C298.532 50.7205 298.946 50.9494 299.263 51.0727C299.589 51.1959 299.923 51.2576 300.267 51.2576C300.848 51.2576 301.306 51.0815 301.64 50.7293C301.667 50.5972 301.68 50.4608 301.68 50.3199C301.68 49.9061 301.539 49.5583 301.257 49.2765C300.984 48.9948 300.65 48.7703 300.253 48.603C299.866 48.4357 299.474 48.2596 299.078 48.0747C298.682 47.8898 298.343 47.6257 298.061 47.2823C297.788 46.9389 297.652 46.5119 297.652 46.0012C297.652 45.3409 297.925 44.8082 298.47 44.4032C299.025 43.9982 299.752 43.7957 300.65 43.7957C301.275 43.7957 301.86 43.9189 302.406 44.1655L302.023 45.4069C301.284 44.9139 300.672 44.6673 300.187 44.6673C299.712 44.6673 299.232 44.817 298.748 45.1164C298.748 45.6358 298.884 46.0629 299.157 46.3974C299.43 46.7232 299.765 46.9741 300.161 47.1502C300.557 47.3263 300.949 47.5024 301.336 47.6785C301.733 47.8546 302.067 48.1099 302.34 48.4445C302.613 48.7703 302.75 49.1929 302.75 49.7124C302.75 50.4167 302.463 50.9978 301.891 51.4557C301.328 51.9135 300.645 52.1424 299.844 52.1424C299.043 52.1424 298.286 52.0016 297.572 51.7198ZM330.338 51.9443L330.523 49.3294V45.7767L330.285 44.0334C331.209 43.8485 332.085 43.7561 332.913 43.7561C334.331 43.7561 335.378 44.0818 336.056 44.7334C336.743 45.3761 337.086 46.371 337.086 47.7181C337.086 49.0652 336.664 50.1394 335.818 50.9406C334.982 51.7418 333.855 52.1424 332.438 52.1424C331.742 52.1424 331.042 52.0764 330.338 51.9443ZM331.751 51.0991C332.103 51.2136 332.508 51.2708 332.966 51.2708C333.697 51.2708 334.392 51.1167 335.052 50.8085C335.264 50.5092 335.431 50.091 335.554 49.5539C335.686 49.0168 335.752 48.4621 335.752 47.8898C335.752 46.754 335.519 45.9264 335.052 45.4069C334.595 44.8874 333.859 44.6277 332.847 44.6277C332.495 44.6277 332.134 44.6629 331.764 44.7334L331.632 46.5691V49.3426L331.751 51.0991ZM351.593 52.1424C351.029 52.1424 350.593 51.9928 350.285 51.6934C349.986 51.3852 349.836 50.967 349.836 50.4387C349.836 49.9105 350.052 49.5187 350.483 49.2633C350.915 49.008 351.822 48.7527 353.204 48.4973C353.204 47.8282 353.129 47.3659 352.979 47.1106C352.83 46.8553 352.561 46.7276 352.174 46.7276C351.962 46.7276 351.795 46.7364 351.672 46.754L350.563 47.7313L349.968 46.7408C350.646 46.2037 351.403 45.9352 352.24 45.9352C353.622 45.9352 354.313 46.6308 354.313 48.0219V50.4652L354.551 51.9575L353.323 52.1424L353.27 51.4821C352.724 51.9223 352.165 52.1424 351.593 52.1424ZM350.959 50.3859C350.959 50.6765 351.047 50.9054 351.223 51.0727C351.408 51.24 351.69 51.3236 352.068 51.3236C352.456 51.3236 352.834 51.1871 353.204 50.9142V49.2501C352.359 49.3734 351.641 49.5627 351.051 49.818C350.99 50.0557 350.959 50.245 350.959 50.3859ZM367.667 51.9443L367.852 49.3294V47.4804L367.654 46.1201L368.988 45.988L368.935 46.9785C369.243 46.6087 369.516 46.3446 369.754 46.1861C369.991 46.0276 370.238 45.9484 370.493 45.9484C370.757 45.9484 371.017 46.0056 371.272 46.1201L370.916 47.2559L369.727 46.8993C369.401 47.1898 369.115 47.5596 368.869 48.0087V49.3426L369.014 51.9443H367.667ZM383.687 50.3199V46.1729L384.981 46.1069L384.796 48.9464V50.3331C384.796 50.6589 384.849 50.8922 384.954 51.0331C385.06 51.1651 385.236 51.2312 385.483 51.2312C386.011 51.2312 386.592 51.0683 387.226 50.7425L387.068 46.1729L388.335 46.1069V50.6104L388.534 51.9707L387.226 52.1028V51.4425C386.513 51.9091 385.795 52.1424 385.073 52.1424C384.624 52.1424 384.281 51.9884 384.043 51.6802C383.805 51.3632 383.687 50.9098 383.687 50.3199ZM401.344 51.8255L401.7 50.6765C402.325 51.1167 402.849 51.3368 403.272 51.3368C403.694 51.3368 404.051 51.2356 404.342 51.0331C404.359 50.9802 404.368 50.8482 404.368 50.6369C404.368 50.4167 404.284 50.2318 404.117 50.0822C403.959 49.9237 403.589 49.6948 403.008 49.3954C402.427 49.096 402.03 48.8231 401.819 48.5766C401.617 48.3212 401.515 48.0175 401.515 47.6653C401.515 47.1722 401.731 46.7628 402.162 46.4371C402.603 46.1113 403.113 45.9484 403.694 45.9484C404.284 45.9484 404.782 46.0364 405.187 46.2125L404.87 47.2427C404.315 46.9169 403.849 46.754 403.47 46.754C403.1 46.754 402.766 46.8421 402.466 47.0182C402.466 47.3263 402.545 47.5728 402.704 47.7577C402.871 47.9426 403.232 48.1804 403.787 48.4709C404.342 48.7527 404.742 49.03 404.989 49.303C405.244 49.5759 405.372 49.8885 405.372 50.2406C405.372 50.7777 405.138 51.2312 404.672 51.601C404.214 51.9619 403.672 52.1424 403.047 52.1424C402.431 52.1424 401.863 52.0368 401.344 51.8255ZM417.98 51.8255L418.336 50.6765C418.961 51.1167 419.485 51.3368 419.908 51.3368C420.331 51.3368 420.687 51.2356 420.978 51.0331C420.995 50.9802 421.004 50.8482 421.004 50.6369C421.004 50.4167 420.92 50.2318 420.753 50.0822C420.595 49.9237 420.225 49.6948 419.644 49.3954C419.063 49.096 418.666 48.8231 418.455 48.5766C418.253 48.3212 418.151 48.0175 418.151 47.6653C418.151 47.1722 418.367 46.7628 418.799 46.4371C419.239 46.1113 419.749 45.9484 420.331 45.9484C420.92 45.9484 421.418 46.0364 421.823 46.2125L421.506 47.2427C420.951 46.9169 420.485 46.754 420.106 46.754C419.736 46.754 419.402 46.8421 419.102 47.0182C419.102 47.3263 419.182 47.5728 419.34 47.7577C419.507 47.9426 419.868 48.1804 420.423 48.4709C420.978 48.7527 421.378 49.03 421.625 49.303C421.88 49.5759 422.008 49.8885 422.008 50.2406C422.008 50.7777 421.775 51.2312 421.308 51.601C420.85 51.9619 420.309 52.1424 419.683 52.1424C419.067 52.1424 418.499 52.0368 417.98 51.8255ZM436.372 52.1424C435.809 52.1424 435.373 51.9928 435.065 51.6934C434.765 51.3852 434.616 50.967 434.616 50.4387C434.616 49.9105 434.831 49.5187 435.263 49.2633C435.694 49.008 436.601 48.7527 437.984 48.4973C437.984 47.8282 437.909 47.3659 437.759 47.1106C437.609 46.8553 437.341 46.7276 436.953 46.7276C436.742 46.7276 436.575 46.7364 436.452 46.754L435.342 47.7313L434.748 46.7408C435.426 46.2037 436.183 45.9352 437.019 45.9352C438.402 45.9352 439.093 46.6308 439.093 48.0219V50.4652L439.331 51.9575L438.102 52.1424L438.05 51.4821C437.504 51.9223 436.945 52.1424 436.372 52.1424ZM435.738 50.3859C435.738 50.6765 435.826 50.9054 436.002 51.0727C436.187 51.24 436.469 51.3236 436.848 51.3236C437.235 51.3236 437.614 51.1871 437.984 50.9142V49.2501C437.138 49.3734 436.421 49.5627 435.831 49.818C435.769 50.0557 435.738 50.245 435.738 50.3859ZM452.446 51.9443L452.631 49.3294V44.456L452.433 43.0957L453.86 42.9636L453.714 45.5522V49.3426L453.86 51.9443H452.446ZM468.548 52.1424C467.985 52.1424 467.549 51.9928 467.241 51.6934C466.941 51.3852 466.792 50.967 466.792 50.4387C466.792 49.9105 467.007 49.5187 467.439 49.2633C467.87 49.008 468.777 48.7527 470.159 48.4973C470.159 47.8282 470.085 47.3659 469.935 47.1106C469.785 46.8553 469.517 46.7276 469.129 46.7276C468.918 46.7276 468.751 46.7364 468.627 46.754L467.518 47.7313L466.924 46.7408C467.602 46.2037 468.359 45.9352 469.195 45.9352C470.578 45.9352 471.269 46.6308 471.269 48.0219V50.4652L471.507 51.9575L470.278 52.1424L470.225 51.4821C469.68 51.9223 469.12 52.1424 468.548 52.1424ZM467.914 50.3859C467.914 50.6765 468.002 50.9054 468.178 51.0727C468.363 51.24 468.645 51.3236 469.024 51.3236C469.411 51.3236 469.79 51.1871 470.159 50.9142V49.2501C469.314 49.3734 468.597 49.5627 468.007 49.818C467.945 50.0557 467.914 50.245 467.914 50.3859ZM489.311 47.3483L489.337 47.771V51.9443L488.043 52.0104L488.228 49.1445V47.7577C488.228 47.432 488.175 47.2031 488.069 47.071C487.972 46.9301 487.805 46.8597 487.567 46.8597C487.03 46.8597 486.471 47.0226 485.89 47.3483V51.9443H484.622L484.807 49.3294V47.4672L484.609 46.1069L485.89 45.9748V46.6484C486.595 46.1817 487.294 45.9484 487.99 45.9484C488.554 45.9484 488.945 46.2081 489.165 46.7276C489.94 46.2081 490.689 45.9484 491.411 45.9484C491.851 45.9484 492.185 46.1069 492.414 46.4238C492.643 46.732 492.758 47.181 492.758 47.771V51.9443L491.463 52.0104L491.648 49.1445V47.7577C491.648 47.432 491.596 47.2031 491.49 47.071C491.393 46.9301 491.226 46.8597 490.988 46.8597C490.451 46.8597 489.892 47.0226 489.311 47.3483Z" fill="black"/>
<defs>
<clipPath id="clip0_1702_674">
<rect width="42.2053" height="53.5103" fill="white" transform="translate(0 1)"/>
</clipPath>
</defs>
</svg>
