<svg width="185" height="235" viewBox="0 0 185 235" fill="none" xmlns="http://www.w3.org/2000/svg">
<path d="M151.509 231.748C145.728 229.025 137.713 226.723 132.88 226.243L130.377 225.994L129.833 224.042C129.462 222.715 128.751 220.963 128.482 220.745C128.213 220.528 125.849 220.048 123.267 219.601C100.984 215.746 84.11 215.641 62.9421 219.046C57.3152 219.951 56.2979 220.025 56.2824 221.108C56.2792 221.338 55.5976 223.28 55.2708 224.379C54.6889 226.338 55.6627 225.489 54.3972 225.284C51.6685 224.841 40.3436 228.188 32.7803 231.513C31.0056 232.293 30.5703 232.711 30.5752 232.558C30.5802 232.405 30.7382 230.531 31.1586 227.736C31.5789 224.941 31.8952 222.496 31.9002 222.341C31.9051 222.187 30.3256 220.3 28.274 218.651C26.2224 217.001 24.0076 215.963 24.087 215.724C24.2235 215.313 27.9107 214.299 34.7562 211.85C36.9931 211.05 38.3253 210.426 38.3253 209.913C38.3253 209.037 38.5467 208.404 45.0921 206.712C51.6647 205.013 58.784 203.797 66.8942 202.557C79.1453 200.685 99.1731 201.031 113.517 203.149C127.377 205.196 146.439 209.597 147.081 210.795C147.293 211.192 149.454 212.198 151.528 212.93C158.352 215.34 160.912 215.924 160.786 216.57C160.683 217.1 157.373 218.067 154.194 221.339L153.173 222.39L154.08 227.456C154.572 230.206 154.762 232.45 154.834 232.826C155.016 233.764 154.899 233.345 151.509 231.748Z" fill="white"/>
<path d="M71.1049 11.1437C71.2181 10.1124 71.7319 9.01913 72.558 8.391C72.7418 8.25124 73.0784 8.10469 73.2349 8.243C73.3913 8.38132 73.3193 8.96383 73.3694 9.3232C73.4204 9.68835 73.3753 10.0855 73.5382 10.4163C73.6821 10.7084 73.9193 10.9817 74.2127 11.1229C74.9015 11.4545 75.7636 11.5411 76.4973 11.3262C77.7211 10.9676 78.4847 9.72603 79.5219 8.98442C80.4922 8.29066 81.3269 7.16909 82.51 7.01552C83.5195 6.88448 84.5016 7.51893 85.4045 7.98884C85.891 8.24205 86.7286 8.96528 86.7286 8.96528C86.7286 8.96528 86.9692 8.13384 87.2216 7.79338C87.5857 7.30229 88.1599 7.00909 88.6328 6.62148C88.8389 6.4525 89.1215 6.3495 89.2545 6.11853C89.4016 5.86297 89.3431 5.53555 89.3901 5.24449C89.5203 4.43721 89.4602 3.57085 89.7957 2.82508C90.1109 2.12458 90.5943 1.44269 91.2438 1.03219C91.7292 0.725457 92.3461 0.585664 92.9187 0.62944C93.4643 0.671157 94.0464 0.869158 94.4378 1.25144C95.348 2.1406 95.5977 3.53114 95.9659 4.74889C96.0731 5.10342 96.0014 5.5081 96.1597 5.84298C96.2886 6.11574 96.5771 6.28223 96.7481 6.53076C97.0577 6.98056 97.3137 7.46879 97.5304 7.96995C97.688 8.3346 97.6644 8.9978 97.9033 9.10187C98.1422 9.20595 98.5617 8.7269 98.9057 8.56908C99.9542 8.08789 100.977 7.27262 102.13 7.3113C103.388 7.35351 104.527 8.18013 105.548 8.91623C106.134 9.33839 106.406 10.1407 107.041 10.4852C108.079 11.0488 109.39 11.4661 110.524 11.1354C110.829 11.0466 111.08 10.7701 111.219 10.4851C111.4 10.1151 111.302 9.66548 111.331 9.25463C111.357 8.88295 111.129 8.40806 111.386 8.13821C111.509 8.0092 111.754 8.01516 111.918 8.08597C112.888 8.50627 113.622 9.56887 113.852 10.601C114.078 11.6198 113.872 12.8811 113.175 13.6581C112.621 14.2761 111.646 14.4623 110.815 14.4567C109.976 14.451 109.213 13.9471 108.441 13.6174C108.01 13.4335 107.651 13.0465 107.187 12.9844C106.338 12.8707 105.519 13.3992 104.668 13.4988C104.429 13.5268 104.073 13.6311 103.947 13.5216C103.821 13.4122 103.934 12.9596 103.788 12.7354C103.201 11.8327 102.217 10.7021 101.153 10.8669C100.336 10.9934 100.239 12.2556 99.6598 12.8448C99.0571 13.4583 98.483 14.339 97.6282 14.4355C97.2804 14.4747 96.9179 14.2434 96.678 13.9887C96.4765 13.7746 96.4664 13.4401 96.3517 13.1694C95.8399 11.9624 95.7649 10.3974 94.7372 9.58289C94.1104 9.0862 93.1773 9.03733 92.382 9.12338C91.5014 9.21868 90.5613 9.54418 89.9432 10.1784C89.3086 10.8297 89.208 11.8449 88.9257 12.7092C88.7702 13.1854 88.9014 13.8035 88.5551 14.1658C88.3384 14.3925 87.9642 14.4891 87.6546 14.4389C86.8266 14.3046 86.26 13.5038 85.6012 12.9848C84.6622 12.2452 84.0952 10.5672 82.901 10.6252C82.0622 10.6659 81.5747 11.7208 81.174 12.4584C81.021 12.7401 81.0584 13.2304 80.9458 13.3926C80.8331 13.5548 80.6222 13.4947 80.4553 13.4932C79.7446 13.4869 79.0851 13.0176 78.3744 13.0278C77.5791 13.0392 76.8204 13.3762 76.0619 13.615C75.3025 13.8541 74.6227 14.5046 73.828 14.4593C72.0844 14.1743 70.9473 12.8058 71.1049 11.1437ZM94.3263 5.36754C94.3666 4.78236 94.3536 4.17059 94.1646 3.61529C94.0292 3.21749 93.8355 2.79001 93.4905 2.5499C93.2213 2.36254 92.8469 2.26883 92.5279 2.34521C92.0997 2.4477 91.7531 2.8145 91.5008 3.17505C91.2436 3.54251 91.0979 4.00063 91.0648 4.44786C91.0333 4.87572 91.1191 5.32384 91.2986 5.71353C91.4666 6.07825 91.7182 6.43387 92.0569 6.6498C92.3865 6.85992 92.8048 6.96476 93.1946 6.93444C93.5011 6.91059 93.8459 6.80996 94.044 6.57489C94.3103 6.25875 94.2978 5.77985 94.3263 5.36754Z" fill="#D1AF66"/>
<path d="M92.6956 198.7V196.026L85.362 195.769C81.3286 195.629 73.8044 195.51 68.6416 195.507C55.9202 195.498 47.1328 194.952 43.2188 193.928C36.6655 192.213 31.8769 189.595 26.9435 185.031C23.8818 182.199 22.2419 179.874 20.6215 176.069L19.5837 173.632L19.3104 112.642C19.1601 79.0971 18.9849 51.6516 18.9211 51.6516C18.8573 51.6516 17.082 52.0827 14.976 52.6096C5.99446 54.8567 3.86279 54.7945 1.60075 52.2195C0.634942 51.1201 0.391113 50.4907 0.391113 49.097C0.391113 48.1369 0.91657 48.8722 1.01183 48.8722C1.10709 48.8722 1.3578 48.8802 2.11593 49.3272C3.76581 50.3002 5.4422 49.7623 6.38903 47.5546C7.19984 45.664 7.0403 45.7092 9.42054 45.3287C11.0334 45.071 12.2546 44.498 12.5993 43.5205C12.733 43.1413 12.3774 43.1377 13.2716 43.6508C14.4224 44.3111 15.3507 43.9919 16.318 42.9468C20.3539 38.5865 31.9296 20.8443 32.5913 18.2048C32.7005 17.7692 32.7417 16.3746 32.4094 15.4338C31.7001 13.4256 31.1754 12.2615 31.7966 11.0529C32.3197 10.0353 32.7368 8.22789 33.1381 8.22789C33.2941 8.22789 33.2672 7.51572 33.4065 8.34001C33.692 10.0287 36.6427 14.0213 37.0583 13.6069C37.208 13.4575 37.5569 11.4824 37.7789 10.6937C38.0009 9.90503 37.8566 9.75176 38.1146 9.75176C38.3726 9.75176 38.0432 9.95311 38.5312 10.9099C39.5505 12.9082 41.8284 13.7667 41.8284 12.3719C41.8284 11.8575 41.9457 11.4978 42.2531 11.0804C42.7892 10.3527 41.7518 10.0318 43.1204 11.6252C43.9053 12.539 45.2633 13.555 45.4272 13.555C45.591 13.555 46.194 13.2047 46.4391 12.6671C46.6841 12.1296 46.8079 11.6898 46.9876 11.6898C47.1674 11.6898 46.6673 12.0939 47.5144 12.957L49.5044 14.9845L92.7274 14.8503L135.906 14.7161L137.528 12.778C138.292 11.8644 138.225 11.4662 138.409 11.4662C138.592 11.4662 138.405 11.7271 138.65 12.2646C139.267 13.6166 140.76 13.1932 142.382 11.3094C144.053 9.36691 143.182 9.18141 142.966 11.4439C142.886 12.2788 143.733 13.4986 143.862 13.4986C144.322 13.4986 146.396 12.3909 146.89 11.1399C147.166 10.4411 146.898 10.0036 147.061 10.0036C147.582 10.0036 146.347 10.395 147.539 11.1689L148.634 12.5645L150.017 12.0214C150.716 11.7468 151.252 9.91459 151.4 9.04214C151.703 7.25014 150.926 7.45673 152.098 8.738C154.331 11.1789 155.416 12.5902 153.909 15.2244L152.138 17.0017L153.224 19.9553C155.15 25.1973 162.171 34.6919 167.906 41.0993L170.271 43.7404L172.574 43.8125C173.811 43.8512 172.55 42.8316 172.55 43.2948C172.55 44.3839 174.54 45.2528 176.097 45.2528C177.984 45.2528 177.951 45.142 178.99 47.3054C179.953 49.3111 181.918 50.2267 183.201 49.0223C184.264 48.024 184.015 47.8267 184.015 49.2094C184.015 50.625 184.016 51.8583 182.519 52.9996C181.443 53.82 180.782 53.9971 178.796 53.9971C176.808 53.9971 169.203 52.6429 166.52 51.811C165.87 51.6096 165.835 54.6949 165.835 112.84V174.082L164 177.633C159.44 186.458 149.258 193.221 138.261 194.73C136.54 194.966 126.288 195.262 115.478 195.389L95.8245 195.619V198.497V201.375H94.26H92.6955L92.6956 198.7Z" fill="white"/>
<path d="M3.69625 53.9911C1.80368 53.1672 0.391113 51.2174 0.391113 49.429C0.391113 48.548 0.612479 47.9933 0.612479 47.9933C0.612479 47.9933 1.17219 48.1451 1.84887 48.6772C2.39582 49.1072 3.16708 49.459 3.56278 49.459C4.29099 49.459 5.47568 47.6608 5.47568 46.5555C5.47568 45.7403 6.91674 44.8785 8.8002 44.5673C11.3574 44.1447 11.7336 43.9695 11.7336 43.201C11.7336 42.1115 12.3209 41.9501 13.1109 42.8225C14.4154 44.2632 14.3311 44.3394 20.3708 36.259C22.1814 33.8366 24.2293 31.07 24.9217 30.1109C26.7759 27.5423 32.0719 18.2537 32.0719 17.5701C32.0719 17.2463 31.7199 16.2916 31.2896 15.4487C29.9621 12.8479 30.3667 10.0176 32.3655 7.92348C33.0474 7.20907 33.4629 6.86971 33.7079 6.92837C33.9529 6.98703 34.0275 7.44372 34.0275 8.32139C34.0275 9.25397 34.3914 10.3296 35.0194 11.2533C36.1001 12.8429 36.7653 13.1232 36.7653 11.9888C36.7653 10.9868 37.5594 8.80306 37.9238 8.80306C38.0887 8.80306 38.5268 9.59669 38.8974 10.5667C39.268 11.5367 39.908 12.5104 40.3195 12.7305C40.731 12.9506 41.0869 13.0805 41.1105 13.0192C41.1341 12.9579 41.2023 12.3207 41.262 11.6031C41.3802 10.1839 42.2065 9.03018 42.5115 9.85848C42.8178 10.6902 44.2354 12.3146 45.0223 12.7355C45.6805 13.0876 45.8454 12.9781 46.2036 11.9512C46.4325 11.2948 46.7448 10.7577 46.8974 10.7577C47.0501 10.7577 47.7333 11.5493 48.4156 12.5168L49.6562 14.276H92.4514H135.247L136.415 12.9456C137.058 12.2139 137.75 11.1173 137.75 11.1173C137.75 11.1173 138.848 11.0488 138.848 11.9304C138.848 13.746 141.077 12.9288 141.964 10.788C142.238 10.1263 142.702 9.5849 142.995 9.5849C143.733 9.5849 144.145 11.5004 143.595 12.3804C143.214 12.9901 143.262 13.1032 143.901 13.1032C144.831 13.1032 146.138 11.5093 146.479 9.95747C146.618 9.32254 146.888 8.80306 147.079 8.80306C147.557 8.80306 148.235 10.1504 148.235 11.0998C148.235 13.2164 150.41 11.9709 150.803 9.62896C151.05 8.16349 151.178 7.4242 151.385 7.17913C151.591 6.93407 151.875 7.18321 152.432 7.69459C152.978 8.19675 153.762 9.35482 154.173 10.2681C155.065 12.251 154.849 14.0318 153.496 15.8652L152.578 17.1091L154.297 20.5309C155.243 22.4128 156.267 24.2028 156.573 24.5086C156.879 24.8144 157.42 25.6268 157.775 26.314C159.653 29.9429 169.913 43.5857 170.769 43.592C171.009 43.5939 171.669 43.2306 172.236 42.785L173.266 41.9747V42.9667C173.266 44.2137 174.263 44.7679 176.505 44.7679C178.434 44.7679 179.247 45.4143 179.699 47.3067C179.853 47.9506 180.162 48.6982 180.386 48.9682C181.031 49.7456 182.971 49.5659 183.526 48.6772C183.833 48.1864 184.074 47.9391 184.276 47.9345C184.479 47.9299 184.643 48.1681 184.795 48.6485C185.131 49.705 184.123 51.9055 182.843 52.9118C180.516 54.7415 179.431 54.7715 172.033 53.2109C168.301 52.4237 163.664 51.262 161.728 50.6292C154.899 48.3973 137.936 43.9831 131.02 42.6381C127.17 41.8893 120.712 40.7904 116.669 40.1962C109.552 39.1502 108.795 39.1158 92.8911 39.1148C77.0202 39.114 76.2058 39.1506 68.8372 40.1995C64.6424 40.7967 59.3032 41.6386 56.9723 42.0705C51.2339 43.1336 37.4136 46.6089 28.3562 49.2664C20.1629 51.6704 7.9748 54.5496 6.09313 54.5257C5.43086 54.5173 4.35226 54.2767 3.69625 53.9911ZM26.2519 42.8998C40.5507 38.0871 51.0442 37.4944 68.9963 35.3167C76.8849 34.3597 101.586 35.1186 109.905 35.94C129.913 37.9158 145.045 41.0909 163.26 47.1357C167.759 48.6288 169.909 49.2967 169.998 49.2077C170.088 49.1186 169.36 48.3965 167.99 46.819C161.235 39.0441 152.58 30.5155 149.149 23.0992L147.724 20.0191L92.3775 20.1922L37.352 20.8463L35.2008 21.8063C38.4222 20.3688 26.1005 35.5236 21.9287 40.6633C15.6446 48.4053 14.5963 48.9247 14.8385 48.9247C14.977 48.9247 17.6504 45.4124 22.4207 43.8068L26.2519 42.8998Z" fill="#FFCB2E"/>
<path d="M15.5025 47.7372C16.4681 46.5406 18.7309 43.8229 20.531 41.6981C24.3043 37.2441 33.3413 25.2884 35.6407 21.7085L37.2052 19.2727L147.577 19.2656L150.449 23.468C155.091 30.2605 161.579 38.5508 169.43 47.7231C170.221 48.6467 170.802 49.466 170.722 49.5436C170.643 49.6213 168.025 48.811 164.906 47.7429C142.192 39.9651 119.803 35.9107 96.8511 35.4184C77.3469 35.0001 59.6993 37.0083 39.3999 41.956C33.0677 43.4994 19.0622 47.8057 14.5247 49.6045C13.989 49.8169 14.2932 49.236 15.5025 47.7372Z" fill="#EB3437"/>
<path d="M92.6934 196.019L71.4665 195.717C47.7513 195.379 46.0892 195.283 39.5396 192.943C34.6625 191.201 31.0171 188.975 27.2676 185.449C23.568 181.97 22.478 180.43 20.9109 176.465L19.5862 173.643L18.9316 51.8049L20.4949 51.3984C21.2581 51.1999 21.8762 50.7563 21.9518 50.7563C22.0275 50.7563 22.1943 55.6321 22.3533 61.9915L22.6425 73.5542L23.5936 71.9601C24.1168 71.0833 24.689 70.3659 24.8653 70.3659C25.0416 70.3659 25.84 71.6102 26.6396 73.1311C27.4392 74.652 28.1601 75.8296 28.2417 75.7481C28.3233 75.6665 29.2106 71.7395 30.2136 67.0213C31.2165 62.3031 32.2183 58.214 32.4397 57.9345C33.2443 56.9187 33.809 58.4567 35.6401 66.6521C36.6489 71.1673 37.6088 75.0022 37.7732 75.1742C37.9377 75.3462 38.6229 74.3347 39.2959 72.9264C40.0017 71.4495 40.7686 70.3659 41.1081 70.3659C41.7258 70.3659 43.3601 73.2789 43.8266 75.2112C43.9792 75.8434 44.2438 76.1885 44.4262 75.9931C44.6057 75.8007 45.752 71.1575 46.9735 65.6748C48.195 60.1921 49.2822 55.3984 49.3896 55.0222C49.6707 54.0371 50.959 54.1723 51.2516 55.2176C51.387 55.7014 52.3824 59.6155 53.4636 63.9157C54.5449 68.2158 55.6234 72.3395 55.8604 73.0793L56.2912 74.4245L57.6259 71.7782C59.1724 68.7121 59.5098 68.7503 60.9199 72.1507C61.6981 74.0273 62.4391 74.9008 62.4391 73.9415C62.4391 73.1631 66.0301 54.4196 66.4046 53.2428C66.6306 52.5329 67.0188 52.0186 67.2674 52.0999C67.9167 52.3124 68.345 53.7944 70.8514 64.5021C72.0845 69.7697 73.2165 74.2151 73.367 74.3806C73.5175 74.5461 74.0571 73.7929 74.5661 72.7068C75.8422 69.9836 76.3318 69.65 77.0389 71.0224C77.3513 71.6288 77.8356 72.891 78.1151 73.8271C78.7836 76.0663 78.7625 76.134 81.2155 63.9025C82.3286 58.3528 83.395 53.4027 83.5853 52.9023C84.3074 51.004 84.9761 51.9076 85.8772 55.9995C87.9375 65.3547 89.9185 73.7255 90.1881 74.2155C90.3786 74.5617 90.7872 73.9586 91.3801 72.4563C93.0263 68.2846 93.5028 68.2775 95.3272 72.3973C96.0086 73.9358 96.4986 74.6393 96.6343 74.2737C96.7536 73.952 97.8901 68.8844 99.1598 63.0124C100.429 57.1404 101.578 52.2265 101.712 52.0926C102.456 51.3485 103.273 54.4251 106.277 69.2909C106.787 71.8172 107.303 73.8842 107.423 73.8842C107.543 73.8842 108.205 72.7408 108.895 71.3432C109.584 69.9457 110.336 68.8022 110.565 68.8022C110.925 68.8022 112.131 71.1726 113.051 73.6887C113.507 74.9338 113.867 73.858 114.818 68.4113C116.404 59.3336 118.106 51.9925 118.626 51.9925C118.898 51.9925 119.305 52.6522 119.531 53.4585C120.02 55.2036 124.236 73.6149 124.236 74.0047C124.236 74.635 124.927 74.2011 125.329 73.3176C125.569 72.791 126.226 71.6315 126.789 70.7409C127.731 69.2494 127.864 69.1697 128.484 69.73C128.854 70.0646 129.475 71.2241 129.864 72.3067C130.254 73.3893 130.715 74.2751 130.89 74.2751C131.065 74.2751 131.944 71.1526 132.844 67.3362C135.214 57.2867 136.266 53.1298 136.497 52.8992C137.073 52.3231 137.594 53.8099 139.293 60.8787C140.315 65.1291 141.445 69.8269 141.805 71.3181L142.459 74.0295L143.533 72.1977C144.124 71.1902 144.772 70.3659 144.973 70.3659C145.174 70.3659 145.636 70.8497 145.998 71.4409C146.361 72.0322 146.927 72.9558 147.255 73.4933C147.827 74.4308 147.933 74.1365 149.844 66.2612C151.836 58.0518 152.148 57.0745 152.781 57.0745C153.274 57.0745 153.754 58.7838 155.525 66.8476C156.398 70.8252 157.163 74.2439 157.223 74.4447C157.284 74.6454 157.997 73.6239 158.808 72.1748C159.619 70.7256 160.488 69.6075 160.74 69.6901C160.991 69.7727 161.549 70.7941 161.979 71.96L162.762 74.0797L163.004 68.2158C163.138 64.9907 163.27 59.6488 163.298 56.3448L163.348 51.1195L164.228 51.3552C164.712 51.4849 165.569 51.6882 165.784 51.6911L165.837 174.081L163.837 177.87C162.225 180.922 161.466 182.132 158.675 184.906C153.984 189.567 147.466 193.095 140.859 194.55C137.611 195.265 123.81 195.53 107.125 195.826L95.8188 196.026L95.8268 201.376C94.9141 201.376 93.606 201.376 92.6934 201.376L92.6934 196.019ZM136.448 192.328C144.674 191.386 152.577 187.58 157.689 182.1C160.707 178.864 162.063 176.313 162.556 172.942C162.788 171.357 163.058 152.654 163.213 127.538L163.477 84.83L103.278 84.8308C70.1683 84.8312 38.4614 84.9474 32.8182 85.0888L22.5577 85.3461L22.4535 106.882C22.3962 118.727 22.4373 138.797 22.5448 151.482L22.7404 174.547L23.8983 176.892C25.7021 180.546 31.2002 185.793 35.6474 188.104C42.0943 191.454 44.3988 192.026 52.6611 192.328C64.5509 192.763 132.649 192.763 136.448 192.328ZM162.957 81.1307C162.957 79.8654 162.619 78.1529 162.128 76.9283C161.672 75.7916 161.173 74.4217 161.019 73.8842C160.753 72.955 160.668 73.0175 159.294 75.1547C158.499 76.391 157.581 77.4025 157.254 77.4025C156.45 77.4025 155.701 75.4768 154.966 71.5168C154.629 69.7013 153.946 66.7434 153.449 64.9438L152.76 62.145L151.515 68.4207C150.795 72.0553 149.411 75.2734 149.15 75.8208C148.711 76.7381 146.924 77.4792 146.919 76.7456C146.918 76.5694 146.498 75.7332 145.986 74.8875L145.055 73.3498L144.21 75.0043C143.259 76.8674 142.424 77.3754 141.625 76.5764C141.327 76.2782 140.448 73.2196 139.673 69.7795C138.897 66.3394 137.975 62.2494 137.624 60.6906C137.274 59.1319 136.955 58.5047 136.811 58.666C136.667 58.8272 136.06 61.9572 135.146 66.0424C133.725 72.3895 133.42 74.4924 132.376 77.9804C132.078 78.9774 130.44 78.1486 129.863 76.7184C129.537 75.9121 128.96 74.5712 128.581 73.7387L127.89 72.225L127.431 73.916C127.192 74.7993 126.476 75.6137 126.342 76.1476C126.019 77.4329 124.333 78.0626 123.63 77.3429C123.139 76.8405 121.673 70.8792 119.754 61.5802C119.225 59.0165 119.081 58.16 118.947 58.6212C118.404 60.5033 115.558 73.5846 115.316 75.445C115.168 76.5786 114.592 77.5154 114.403 77.632C113.488 78.1974 112.484 77.2371 111.676 75.0227C111.208 73.7383 110.703 72.6123 110.554 72.5204C110.406 72.4286 109.778 73.4103 109.161 74.7021C107.774 77.6015 107.132 78.2192 106.46 77.3005C106.094 76.7995 103.234 63.2198 102.242 57.27C102.103 56.4365 101.208 60.83 100.811 63.7632C100.367 67.0401 98.5693 77.1277 98.1591 77.6384C97.2437 78.7781 95.5472 77.6597 94.5684 75.0929C93.6919 72.7945 93.5688 72.6484 93.0763 73.3217C92.781 73.7253 92.6453 74.8592 92.4399 75.6184C91.9794 77.3208 90.729 78.5753 90.0328 78.5753C89.4157 78.5753 89.038 77.7818 88.6371 75.6434C88.1819 73.2159 84.7647 59.2494 84.4831 58.5915C84.314 58.1963 84.5009 58.866 84.2715 59.7882C83.7476 61.8947 82.9132 66.0362 82.3121 69.7131C81.2948 75.9363 80.3194 77.8442 79.5927 78.6988C78.8747 79.5431 78.8601 79.5441 78.2735 78.7852C77.9472 78.3631 77.3869 77.0877 77.0284 75.951C76.6699 74.8142 76.2532 73.8842 76.1023 73.8842C75.9515 73.8842 75.4352 74.8517 74.955 76.0343C73.265 80.1959 72.3717 78.8121 70.0096 68.3733C69.017 63.9866 68.1211 59.7377 68.0187 58.9314C67.6222 55.8078 67.5211 57.2575 65.8903 66.3903C64.6282 73.4583 63.0975 78.1844 62.6327 78.1844C61.8984 78.1844 60.4835 76.6364 60.4835 75.833C60.4835 75.4166 60.1602 74.5445 59.7651 73.8951C59.0466 72.7143 58.7432 72.951 58.7432 74.1022C58.7432 75.4277 56.8094 78.603 56.2043 78.4865C55.2388 78.3006 54.7768 76.9149 52.6071 67.6985C51.4805 62.913 50.5653 59.4827 50.4154 59.7601C50.2655 60.0376 49.6578 63.5659 48.7492 67.7585C46.0373 80.2728 45.9499 79.1617 44.8387 79.1617C44.0281 79.1617 43.6408 78.7273 42.5734 76.6207C41.8653 75.2231 41.1458 74.0305 40.9745 73.9704C40.8032 73.9104 40.7582 75.7391 40.0903 77.2505C38.7728 80.2318 37.2793 80.0875 36.5813 78.2821C36.3527 77.6908 35.5526 74.2165 34.8033 70.5614C33.3232 63.3408 33.3883 63.1274 33.1288 63.3867C33.0337 63.4818 32.3914 66.6333 31.5437 70.6003C29.9323 78.1414 29.0567 79.748 28.4692 79.748C27.883 79.748 27.2073 78.7138 26.241 76.3374C25.736 75.0957 25.109 74.0797 24.8476 74.0797C24.0917 74.0797 23.4532 77.8206 23.1815 80.4681L23.2373 82.8613L32.2251 82.9735C37.3341 83.0373 69.3274 82.3693 102.723 82.6892L162.957 83.2663L162.957 81.1307Z" fill="#D1AF66"/>
<path d="M23.1065 80.395C23.139 77.5671 24.2078 73.847 24.9879 73.847C25.2492 73.847 25.8762 74.863 26.3812 76.1048C27.3475 78.4811 28.0232 79.5154 28.6094 79.5154C29.1969 79.5154 29.7281 77.6936 31.3395 70.1525C32.1872 66.1855 32.9586 62.8619 33.0538 62.7668C33.3133 62.5075 33.4634 63.1082 34.9435 70.3287C35.6928 73.9838 36.4929 77.4582 36.7215 78.0494C37.4195 79.8548 38.2714 79.3579 39.5889 76.3765C40.2568 74.8651 40.9434 73.6777 41.1147 73.7378C41.286 73.7979 42.0055 74.9905 42.7136 76.388C43.781 78.4946 44.1683 78.929 44.9789 78.929C46.0901 78.929 45.7901 79.9111 48.502 67.3968C49.4106 63.2041 50.2766 59.5468 50.4265 59.2693C50.5763 58.9919 51.6207 62.6803 52.7473 67.4658C54.917 76.6822 55.3791 78.068 56.3445 78.2538C56.9496 78.3703 58.0224 74.8508 58.6681 73.6114C59.2001 72.5904 59.2465 72.4473 59.9053 73.6624C60.2574 74.3118 60.4946 75.1839 60.6237 75.6004C60.8617 76.3677 62.0386 77.9517 62.7729 77.9517C63.2377 77.9517 64.424 73.0966 65.6861 66.0286C67.3169 56.8958 67.7625 55.5752 68.1589 58.6988C68.2613 59.505 69.1572 63.7539 70.1498 68.1407C72.5119 78.5794 73.4052 79.9633 75.0952 75.8016C75.5754 74.6191 76.0917 73.6515 76.2426 73.6515C76.3934 73.6515 76.8101 74.5816 77.1686 75.7183C77.5271 76.855 78.0874 78.1304 78.4137 78.5525C79.0002 79.3113 79.0151 79.3102 79.7361 78.4622C80.4065 77.6736 81.0269 75.0687 82.1387 68.3741C82.6244 65.4495 83.5817 60.6069 84.032 58.7965C84.2614 57.8743 84.4542 57.6194 84.6233 58.0146C84.9049 58.6725 88.3221 72.9833 88.7773 75.4107C89.1783 77.5492 89.556 78.3426 90.173 78.3426C90.8692 78.3426 91.8456 76.9056 92.3062 75.2032C92.5116 74.444 92.9212 73.4926 93.2165 73.089C93.7091 72.4157 93.8321 72.5618 94.7086 74.8602C95.6875 77.4271 96.7542 78.2307 97.6696 77.091C98.0797 76.5803 100.292 66.7644 100.736 63.4876C101.133 60.5543 102.243 56.2039 102.382 57.0373C103.374 62.9872 106.234 76.5669 106.6 77.0678C107.273 77.9866 107.914 77.3689 109.301 74.4694C109.919 73.1777 110.546 72.196 110.694 72.2878C110.843 72.3796 111.348 73.5056 111.817 74.79C112.624 77.0045 113.628 77.9648 114.543 77.3993C114.732 77.2828 115.007 76.2599 115.155 75.1263C115.397 73.2659 118.243 59.7113 118.786 57.8292C118.919 57.368 119.365 58.7839 119.894 61.3475C121.813 70.6465 123.279 76.6078 123.77 77.1103C124.474 77.8299 125.514 76.9421 126.095 75.8288C126.349 75.3408 126.719 74.2133 127.184 73.4252L128.03 71.9923L128.721 73.506C129.101 74.3386 129.678 75.6795 130.003 76.4857C130.58 77.9159 131.68 78.4601 131.978 77.463C133.022 73.9751 133.521 71.9847 134.941 65.6376C135.856 61.5525 136.721 58.0782 136.865 57.917C137.009 57.7558 137.414 58.8992 137.764 60.458C141.509 77.0979 141.536 77.1818 142.907 76.656C143.236 76.5295 143.886 75.6816 144.35 74.7716L145.195 73.1172L146.126 74.6549C146.638 75.5006 147.058 76.3367 147.059 76.5129C147.064 77.2466 148.851 76.5054 149.29 75.5882C149.551 75.0408 150.422 71.6333 151.225 68.016L152.684 61.4391L153.589 64.7111C154.086 66.5107 154.769 69.4686 155.106 71.2841C155.841 75.2441 156.59 77.1698 157.394 77.1698C157.721 77.1698 158.639 76.1583 159.434 74.922C160.808 72.7848 160.893 72.7223 161.159 73.6515C161.313 74.1891 161.812 75.5589 162.268 76.6957C162.759 77.9202 163.097 79.6328 163.097 80.8981V83.3484L23.0762 83.0337L23.1065 80.395Z" fill="#FFCB2E"/>
<path d="M59.272 119.736L23.2241 119.835C23.1772 117.576 23.183 115.334 23.2546 113.519C34.5385 115.515 48.5281 117.745 59.1487 119.091M126.303 118.611L162.689 113.714V120.36H128.053L126.303 118.611ZM124.213 116.377L123.806 115.546L162.229 102.769L162.216 109.221L124.213 116.377ZM60.4904 116.406L23.2546 109.165C23.1579 106.977 23.2288 104.578 23.2418 102.38L62.5622 115.243M121.302 111.507C135.53 104.175 148.891 97.6772 162.457 91.4318L162.2 98.7581C148.007 103.495 134.926 108.277 121.945 113.097L121.302 111.507ZM64.24 112.789L23.6457 98.6653L23.2104 91.2104L65.1986 112.266M36.7483 92.9955C37.9072 93.0119 44.0024 93.0118 45.456 93.0933L68.5124 108.761L67.6065 109.742L36.7483 92.9955ZM117.151 107.485C125.086 102.055 131.205 97.5208 139.05 92.2409L146.862 92.5407C138.448 97.2339 125.383 105.094 118.046 109.07M53.5664 92.9955C56.5638 92.7544 58.6738 92.8191 62.0783 92.6046C65.7119 96.6043 69.586 101.208 73.0593 105.521L71.2086 106.331C64.6312 101.593 58.8037 97.0967 53.5664 92.9955ZM112.724 103.484C116.111 99.8694 119.676 96.0324 122.871 92.6046L129.988 92.9262L114.646 105.591M74.8772 103.135C71.9776 99.9156 68.5388 95.93 66.0823 92.9236L69.5341 93.0386C71.885 96.1647 74.4714 99.6062 76.5979 102.774M116.103 92.6916L118.884 92.7486L110.132 102.643L108.864 101.493M79.5703 101.368C78.0914 99.4617 75.1251 94.8344 73.9047 92.7955C74.97 92.8086 75.7294 92.7814 76.8513 92.9081C78.0873 95.3822 79.9603 98.8007 81.3113 100.865M104.092 99.5C105.232 97.3543 106.603 94.715 107.75 92.7626L110.67 92.8215C109.105 95.0023 107.27 98.3729 106 100.277M84.4826 99.6412L82.0495 92.8036C82.8631 92.8423 83.7627 92.8518 84.6652 92.9297L85.4723 99.397M102.673 93.1372C101.899 94.8025 101.147 96.5191 100.014 98.784C99.462 98.8501 98.9034 98.7312 98.7726 98.5198C99.334 96.7165 99.8321 94.3823 100.325 92.7967M92.2499 98.3707L91.4515 92.7885L94.6729 92.6046L93.9854 97.9587" fill="#FFEC19"/>
<path d="M59.5649 187.651C55.7032 187.038 51.841 186.276 47.9335 186.133C43.7547 185.981 39.5892 186.95 35.4089 186.846C34.6364 186.827 33.5125 186.8 33.1038 186.6L31.5385 185.355C32.3657 185.147 36.174 184.288 38.5369 184.122C45.7931 183.61 53.1867 183.577 60.3471 184.858C62.1861 185.187 64.9811 186.229 65.6662 186.623C66.8695 187.315 66.6446 188.742 65.5767 188.776C64.7965 188.789 61.5784 187.97 59.5649 187.651ZM122.135 186.209C122.344 185.959 124.203 185.488 125.254 185.182C128.463 184.246 131.681 183.299 134.971 182.707C137.675 182.22 140.42 181.775 143.168 181.828C147.519 181.911 155.563 183.207 156.085 183.716C156.251 183.879 155.535 184.217 155.092 184.618C154.364 185.277 148.7 185.038 145.5 185.156C143.146 185.243 140.775 185.005 138.437 185.283C136.055 185.566 133.75 186.307 131.412 186.842C128.696 187.464 124.288 188.728 123.276 188.763C121.86 188.642 121.806 187.162 122.135 186.209ZM85.5567 186.748C83.6752 186.275 81.0886 186.203 81.5753 185.931C81.5753 185.931 85.7391 184.589 87.8649 184.083C89.8068 183.621 93.2293 183.005 93.755 183.002C93.9164 183.001 93.7307 183.491 93.7307 184.221C93.7307 184.72 94.1532 185.622 93.8854 185.921C92.573 185.971 91.4045 186.041 90.1688 186.159C88.626 186.307 86.4864 186.954 85.5567 186.748ZM94.3746 184.367V182.89C95.6225 182.92 99.3966 183.006 101.84 183.523C104.05 183.992 108.03 184.899 108.246 185.739C108.246 185.957 106.83 185.912 105.295 186.173C103.429 186.042 101.538 185.744 99.65 185.691C97.8915 185.641 96.2395 185.715 94.3746 185.844V184.367ZM61.716 182.121C57.1556 181.64 52.6108 180.883 48.0268 180.756C43.2054 180.624 38.3874 181.137 33.5711 181.398C31.5613 181.507 28.1918 182.543 27.5452 181.782L26.546 180.606C26.2815 180.295 27.7591 179.663 28.4708 179.409C32.445 177.988 36.8149 178.052 41.026 177.769C42.769 177.652 44.5214 177.673 46.2668 177.747C51.0974 177.954 55.9022 178.57 60.7137 179.047C64.1066 179.383 67.4732 180.155 70.8828 180.149C73.9665 180.143 77.0269 179.576 80.0764 179.118C83.2806 178.637 86.6137 178.192 89.6282 177.316C93.9663 175.45 93.7512 176.435 93.7512 177.998C93.7512 178.651 94.363 179.216 93.7973 179.277C93.5048 179.309 92.6868 179.579 92.1257 179.706C89.1778 180.371 86.2095 180.952 83.2277 181.442C79.0742 182.125 74.9209 183.073 70.7118 183.121C67.6949 183.155 64.7165 182.437 61.716 182.121ZM113.735 182.536C110.724 182.424 107.821 181.373 104.857 180.83C102.286 180.358 99.7364 179.708 97.1323 179.482C96.2409 179.405 94.4481 179.482 94.4481 179.482L94.3422 177.638C94.501 174.06 95.6598 174.9 99.4693 176.694C102.33 178.041 100.977 176.588 102.499 177.238C103.513 177.67 106.785 178.102 108.947 178.425C111.977 178.878 115.015 179.517 118.079 179.474C121.094 179.433 124.056 178.674 127.033 178.194C129.947 177.724 132.818 176.981 135.748 176.63C138.833 176.26 141.947 175.966 145.053 176.063C148.643 176.174 152.285 176.432 155.749 177.383C157.311 177.813 160.378 179.135 160.199 179.336L159.265 180.385C158.62 181.109 155.902 179.95 154.216 179.781C150.767 179.437 147.317 178.874 143.851 178.95C139.911 179.036 136.031 179.94 132.118 180.41C125.993 181.145 119.899 182.767 113.735 182.536ZM62.1072 176.703C57.3518 176.134 52.64 175.067 47.8539 174.892C42.611 174.701 37.3362 175.028 32.1371 175.731C29.4698 176.092 24.7807 178.462 24.2492 177.457L23.2442 175.557C23.2392 174.851 25.0181 174.344 26.0263 174.017C31.8044 172.141 38.0407 171.851 44.1156 171.794C50.0256 171.739 55.8724 173.018 61.7511 173.627C64.8367 173.947 67.9064 174.626 71.0082 174.584C73.9324 174.544 76.8086 173.832 79.7076 173.447C82.3734 173.093 87.5336 172.212 87.7029 172.37C88.152 172.788 87.3534 174.734 86.5337 175.171C84.8163 176.086 75.1332 177.524 70.8879 177.687C66.8439 177.842 65.0316 177.052 62.1072 176.703ZM110.586 176.586C107.61 176.131 102.666 174.947 101.844 174.32C100.937 173.024 101.058 172.802 101.117 171.576C101.117 171.576 102.915 171.719 103.806 171.855C105.829 172.164 107.8 172.769 109.824 173.071C112.804 173.517 115.809 174.066 118.82 173.953C121.707 173.846 124.501 172.898 127.357 172.467C133.218 171.583 139.067 170.17 144.993 170.212C148.42 170.236 151.893 170.665 155.173 171.661C157.656 172.415 162.587 173.992 162.19 175.034L161.632 176.497C161.632 176.497 158.655 175.363 157.107 175.011C152.398 173.94 147.57 173.068 142.741 173.137C138.826 173.193 135.007 174.372 131.14 174.989C126.968 175.656 122.843 176.759 118.624 176.988C115.945 177.134 113.238 176.992 110.586 176.586ZM66.2139 172.198C64.0986 172.087 62.0531 171.392 59.956 171.094C55.6261 170.479 51.2847 169.761 46.912 169.682C42.0594 169.594 37.2049 170.121 32.3892 170.725C30.936 170.907 29.5153 171.299 28.0647 171.501C26.3 171.746 22.7461 172.101 22.7456 172.027L22.7286 169.553C23.7324 169.184 27.713 168.532 30.2308 168.18C35.063 167.504 39.9207 166.783 44.7998 166.766C49.8705 166.75 54.9119 167.563 59.9502 168.135C63.113 168.494 66.2292 169.354 69.4114 169.429C72.547 169.503 75.6631 168.909 78.7839 168.595C80.655 168.407 84.0904 167.847 84.3905 167.966C85.4028 168.367 86.979 169.53 86.7425 169.767C86.6133 169.896 83.0867 170.848 81.2093 171.145C76.2603 171.929 71.2178 172.459 66.2139 172.198ZM109.75 171.273C107.411 170.941 103.449 170.184 102.827 169.752C102.206 169.32 102.726 168.417 103.74 167.696C104.435 167.201 106.031 167.372 107.18 167.427C109.254 167.527 111.253 168.253 113.314 168.506C115.277 168.747 117.258 169.047 119.231 168.921C122.21 168.731 125.071 167.677 128.011 167.162C132.808 166.323 137.592 165.144 142.46 164.997C146.067 164.888 149.717 165.188 153.245 165.952C156.529 166.663 159.842 167.783 162.755 169.294L162.623 171.038C162.336 171.156 161.148 170.809 160.415 170.666C156.889 169.975 153.464 168.735 149.895 168.317C146.305 167.896 142.649 167.817 139.051 168.169C136.899 168.379 134.829 169.111 132.704 169.512C128.029 170.396 123.376 171.623 118.624 171.859C115.663 172.006 112.685 171.69 109.75 171.273ZM22.5852 164.499C22.7868 163.974 33.4812 162.006 39.0311 161.514C42.6449 161.194 46.296 161.291 49.9151 161.545C53.417 161.791 56.8565 162.615 60.3471 162.987C64.3302 163.412 68.3274 164.034 72.3303 163.887C75.8032 163.759 79.1991 162.823 82.641 162.344C86.1437 161.856 91.7799 161.008 93.1632 160.986C94.5466 160.964 93.5878 161.386 92.9157 162.345C92.731 162.609 92.7757 162.689 92.3507 162.925C91.9256 163.16 90.7366 163.422 89.9198 163.636C87.3165 164.319 84.7082 165.011 82.0543 165.458C78.0463 166.134 73.9941 166.751 69.9296 166.751C66.324 166.751 62.7624 165.953 59.1738 165.604C54.81 165.18 50.4555 164.484 46.0712 164.452C41.1692 164.416 36.2706 164.936 31.4042 165.527C28.8819 165.833 26.3985 166.404 23.8896 166.805C23.4837 166.87 22.8593 167.101 22.67 166.988L22.5852 164.499ZM109.054 165.786C105.306 165.055 102.936 164.16 99.8815 163.333C98.6021 162.987 96.6539 162.689 96.0466 162.282C95.4393 161.875 95.1125 161.434 95.1125 161.084C95.1125 160.467 103.748 161.878 108.064 162.294C111.583 162.634 115.087 163.494 118.62 163.345C122.066 163.199 125.384 161.978 128.793 161.456C133.401 160.752 138.016 159.807 142.678 159.784C146.416 159.766 150.161 160.277 153.825 161.017C156.875 161.634 162.77 163.514 162.775 163.674L162.828 165.473C162.844 166.001 158.464 164.789 156.273 164.509C151.719 163.926 147.172 162.963 142.581 163.018C138.348 163.069 134.185 164.104 129.994 164.697C126.135 165.243 122.324 166.27 118.429 166.427C115.299 166.552 111.675 166.287 109.054 165.786ZM58.9782 160.259C53.7159 159.755 48.4556 158.987 43.1692 158.998C39.1247 159.007 35.0958 159.548 31.0783 160.014C28.24 160.344 22.5991 161.273 22.5991 161.273L22.5583 159.783C22.5262 158.609 27.7105 157.664 30.4264 157.13C35.1222 156.207 39.9698 156.177 44.7552 156.227C49.9707 156.283 55.1561 157.035 60.3471 157.542C63.611 157.861 66.846 158.671 70.1251 158.628C73.4807 158.584 76.7767 157.731 80.0987 157.256C84.56 156.618 88.9664 155.363 93.4721 155.271C98.2971 155.172 103.071 156.284 107.868 156.807C111.063 157.155 114.238 157.942 117.451 157.873C120.97 157.798 124.4 156.744 127.887 156.258C133.458 155.483 139.015 153.919 144.634 154.187C150.011 154.444 155.233 156.178 160.4 157.688C161.256 157.937 162.571 158.321 162.911 158.604L162.878 160.657C162.645 160.657 158.851 159.759 156.825 159.374C152.735 158.596 148.669 157.421 144.507 157.297C140.552 157.18 136.631 158.08 132.704 158.574C127.085 159.282 121.55 160.952 115.886 160.992C112.074 161.02 108.326 160.007 104.544 159.526C100.821 159.053 97.1246 158.091 93.3718 158.129C90.3501 158.16 87.3853 158.961 84.401 159.436C80.0951 160.122 75.8699 161.534 71.5116 161.664C67.3095 161.789 63.163 160.661 58.9782 160.259ZM66.5849 155.783C59.9827 155.754 53.4939 153.775 46.8928 153.657C40.1727 153.536 33.4683 154.426 26.7814 155.103C25.3691 155.246 22.5744 156.284 22.5588 155.655L22.5149 153.881C22.4838 152.624 28.9753 151.826 32.3129 151.318C37.087 150.593 41.9573 150.525 46.7844 150.655C51.0643 150.771 55.3005 151.553 59.5649 151.935C62.9858 152.241 66.4028 152.817 69.8367 152.747C73.2813 152.677 76.6812 151.95 80.0987 151.512C84.5357 150.944 88.9235 149.764 93.3964 149.708C98.1835 149.647 102.913 150.767 107.673 151.278C110.879 151.622 114.071 152.381 117.294 152.283C120.782 152.177 124.188 151.194 127.62 150.566C130.889 149.967 134.086 148.897 137.398 148.608C141.245 148.272 145.165 148.281 148.98 148.878C152.86 149.486 156.556 150.966 160.278 152.217C161.186 152.522 162.07 152.893 162.966 153.231L162.95 155.21C162.136 155.13 158.065 153.977 155.585 153.545C151.08 152.76 146.543 151.819 141.97 151.865C137.533 151.909 133.189 153.15 128.793 153.759C124.754 154.319 120.746 155.41 116.668 155.377C111.15 155.333 105.785 153.496 100.297 152.923C97.8937 152.673 95.4742 152.378 93.061 152.496C89.285 152.681 85.6084 153.785 81.8587 154.267C76.7842 154.92 71.7011 155.805 66.5849 155.783ZM58.9782 148.999C54.406 148.551 49.8605 147.699 45.2676 147.595C40.2809 147.482 35.297 148.013 30.3277 148.445C27.7088 148.672 23.6751 149.327 22.4947 149.36L22.5206 147.371C22.9835 147.01 26.9583 146.267 29.2189 145.954C34.9898 145.155 40.8325 144.701 46.6579 144.786C51.0452 144.85 55.3965 145.593 59.7604 146.05C63.1501 146.405 66.513 147.273 69.9204 147.198C73.2225 147.125 76.4321 146.076 79.7076 145.652C84.7108 145.003 89.7207 144.145 94.7657 144.127C98.6941 144.112 102.602 144.738 106.499 145.228C109.25 145.574 111.941 146.514 114.713 146.527C118.785 146.545 122.767 145.318 126.796 144.726C131.367 144.053 135.897 142.95 140.511 142.735C143.199 142.61 145.916 142.713 148.571 143.148C152.76 143.835 156.917 144.949 160.83 146.594C161.609 146.922 163.016 147.33 163.029 147.859L163.06 149.067C163.071 149.505 159.87 148.613 158.277 148.371C153.302 147.616 148.397 146.119 143.366 146.016C138.28 145.913 133.242 147.056 128.207 147.782C124.344 148.339 120.571 149.765 116.668 149.77C112.024 149.775 107.551 147.922 102.932 147.44C99.6619 147.098 96.3627 146.934 93.0769 147.042C89.8597 147.148 86.6705 147.682 83.4746 148.066C78.742 148.635 74.0668 149.868 69.3011 149.963C65.8458 150.032 62.4177 149.335 58.9782 148.999ZM49.5477 140.977C46.0269 140.71 42.4848 140.887 38.9549 140.975C36.1849 141.045 33.399 141.025 30.6526 141.393C27.8877 141.763 22.478 143.31 22.4788 143.188L22.4947 140.826C22.4993 140.15 28.0281 139.008 30.8942 138.574C35.4198 137.889 40.0419 137.868 44.6157 138.044C49.4318 138.23 54.1827 139.23 58.9782 139.712C62.0376 140.02 65.0951 140.541 68.1695 140.493C72.5003 140.427 76.7786 139.532 81.0765 138.995C85.19 138.482 89.2578 137.353 93.4033 137.349C97.9378 137.345 102.392 138.558 106.89 139.125C109.626 139.471 112.346 140.155 115.104 140.117C118.828 140.067 122.463 138.965 126.155 138.475C131.905 137.712 137.644 136.197 143.439 136.456C148.689 136.691 153.787 138.351 158.872 139.677C160.298 140.049 162.574 140.679 163.089 141.002L163.058 143.222C162.57 143.269 160.554 142.612 159.287 142.377C152.644 141.143 145.99 139.303 139.234 139.414C135.525 139.475 131.944 140.803 128.283 141.401C124.339 142.045 120.415 143.124 116.418 143.125C111.249 143.126 106.208 141.47 101.07 140.905C98.0554 140.573 95.028 140.097 91.9977 140.218C88.3657 140.364 84.8243 141.403 81.2249 141.91C77.0617 142.497 72.9133 143.438 68.709 143.473C65.487 143.499 62.2939 142.85 59.0988 142.434C55.9052 142.018 52.759 141.221 49.5477 140.977ZM22.4084 124.753H163.212V133.353L22.394 133.599L22.4084 124.753Z" fill="#006BBD"/>
<path d="M94.7921 160.024C96.1724 162.833 100.053 166.075 103.299 166.279C103.803 166.279 104.488 166.384 104.823 166.513C105.499 166.772 105.633 166.569 102.792 169.565C101.238 171.203 101.13 171.45 101.382 172.815C101.292 174.545 103.858 176.465 103.314 177.985C103.128 178.285 98.9868 177.331 96.6936 176.459C94.4698 175.614 94.5005 175.535 94.5005 182.112C94.5005 184.001 94.5642 189.233 94.497 190.275C94.4471 191.353 94.2768 190.448 94.1575 190.361C94.0382 190.273 93.9699 191.002 93.9231 190.324C93.8558 189.314 93.7183 184.131 93.7183 182.307C93.7183 179.082 93.5699 176.443 93.3884 176.443C93.207 176.443 92.0354 176.795 90.7849 177.225C88.1987 178.114 86.3082 178.236 86.242 177.518C86.1507 176.527 86.3515 175.627 86.8966 174.582C87.204 173.993 87.4566 173.019 87.458 172.417C87.1067 169.382 86.185 169.378 84.527 168.019C83.5464 167.209 83.45 166.988 83.9403 166.671C84.263 166.462 85.2355 166.288 86.1014 166.285C91.6294 166.317 91.8871 161.666 94.7921 160.024ZM90.4472 175.182C93.8984 173.977 94.1288 174.243 98.4591 175.433C102.03 176.415 101.205 176.769 100.507 175.889C99.7856 174.98 99.9725 171.78 100.224 170.989C100.36 170.561 100.498 169.284 101.346 168.558C102.194 167.833 100.222 167.477 100.222 167.36C100.222 167.244 102.904 167.692 102.109 167.543C99.8504 167.12 96.8888 165.612 95.7992 163.663L95.0053 162.514L93.4374 164.327C91.6225 166.426 90.1205 167.794 87.9457 167.794C87.4462 167.794 86.9043 168.165 86.9043 168.293C86.9043 168.422 87.1518 168.338 88.0245 169.329C89.322 170.802 89.4942 171.379 89.2681 172.192C89.116 172.739 89.1136 173.615 89.0997 173.976C89.0859 174.336 89.6242 174.958 88.615 174.271C88.3938 174.12 88.4687 174.946 88.4687 175.884C88.4687 176.39 87.375 176.255 90.4472 175.182ZM92.8741 172.171L91.7581 169.955L92.517 168.704C93.03 167.858 94.3861 166.586 94.6025 166.586C95.2673 166.586 98.549 169.973 98.2472 170.386C98.0911 170.6 97.1234 171.782 96.3765 172.248L94.6564 173.322L92.8741 172.171Z" fill="black"/>
<path d="M87.5513 176.519C87.5513 176.371 87.8363 175.236 88.1847 173.995C88.9379 171.311 88.7283 170.204 87.1728 168.649L86.0117 167.489L87.7194 167.233C89.7263 166.932 92.4531 165.2 93.752 163.401L94.6726 162.126L96.6854 164.082C98.1626 165.518 99.3058 166.228 100.982 166.752L103.265 167.466L101.85 168.88C99.7776 170.951 99.7316 171.746 101.434 176.07C101.659 176.642 101.34 176.611 98.8255 175.818C94.6327 174.496 94.6808 174.497 91.0958 175.689C87.3952 176.919 87.5513 176.883 87.5513 176.519ZM97.6873 170.159C97.7243 169.525 95.4405 167.013 94.8267 167.013C94.2952 167.013 91.8528 169.407 91.857 169.924C91.859 170.15 92.4913 171.001 93.2623 171.814L94.6643 173.293L96.1592 172.01C96.9815 171.304 97.6691 170.471 97.6873 170.159Z" fill="white"/>
<path d="M68.1368 192.724C66.4459 192.233 65.4217 190.662 65.3467 189.154C65.2604 187.417 66.5966 185.553 68.1365 184.744C71.0899 183.19 74.8245 184.754 78.1409 185.126C79.5696 185.286 80.9901 185.553 82.3801 185.92C85.9371 186.86 89.3596 188.252 92.8168 189.51C93.3088 189.689 93.9772 190.111 94.283 190.073C94.5889 190.034 95.1724 189.367 95.6875 189.143C102.102 186.364 109.109 184.63 116.092 184.293C117.485 184.226 118.956 184.312 120.236 184.864C121.113 185.242 122.182 185.748 122.468 186.658C123.071 188.582 123.01 191.333 120.762 192.46C119.505 193.09 117.46 193.14 94.3704 193.108C80.6047 193.089 68.7996 192.916 68.1368 192.724Z" fill="#00A857"/>
<path d="M62.9756 121.314C62.9756 120.919 66.7056 116.764 68.8156 114.723C70.5596 113.037 72.4555 111.502 74.4216 110.081C76.3842 108.661 78.3562 107.187 80.576 106.218C84.5774 104.47 88.8608 102.952 93.2253 102.812C97.035 102.691 100.969 103.486 104.434 105.074C109.209 107.261 112.89 111.319 116.878 114.734C119.09 116.629 123.032 120.658 123.234 120.73" fill="#00A857"/>
<path d="M153.254 232.774C148.902 230.24 136.208 226.383 132.217 226.383H130.151L129.457 223.822C129.076 222.413 128.484 221.114 128.143 220.935C127.363 220.525 116.6 218.767 110.117 217.99C94.4093 216.107 79.334 216.569 62.009 219.465L56.7288 220.348L55.9806 223.202L55.2323 226.055L53.9426 225.814C51.2158 225.302 40.4656 228.297 33.5268 231.501C31.7074 232.342 30.1878 233.029 30.15 233.029C30.0558 233.029 31.4397 223.658 31.6887 222.609C31.8551 221.909 31.2346 221.285 27.9932 218.896C25.8508 217.316 24.0916 215.929 24.0841 215.813C24.0594 215.435 29.6387 213.197 33.9301 211.863C37.7596 210.672 38.1006 210.488 37.907 209.717C37.6494 208.691 37.6952 208.674 47.3419 206.273C54.7836 204.421 65.0891 202.549 72.5692 201.691C79.3067 200.918 99.0001 201.033 106.401 201.888C118.82 203.322 131.981 205.876 146.211 209.613C147.242 209.884 147.657 210.193 147.579 210.634C147.494 211.12 148.285 211.507 150.989 212.304C154.183 213.244 159.645 215.37 160.861 216.147C161.187 216.355 160.063 217.406 157.428 219.357L153.51 222.258L153.766 224.028C153.906 225.001 154.325 227.6 154.695 229.804C155.066 232.008 155.263 233.793 155.134 233.772C155.006 233.75 154.159 233.301 153.254 232.774ZM153.921 231.367C153.92 230.958 153.351 227.357 152.566 222.784C152.403 221.834 152.722 221.482 155.695 219.337C157.517 218.023 159.007 216.806 159.007 216.632C159.007 216.012 150.52 212.867 148.17 212.617C147.134 212.506 147.124 212.532 146.125 217.587C145.573 220.383 145.122 222.933 145.122 223.256C145.122 223.697 144.031 224.032 140.722 224.61C138.302 225.032 136.322 225.497 136.322 225.643C136.322 225.789 137.598 226.216 139.157 226.593C142.779 227.469 149.112 229.653 151.492 230.848C153.695 231.954 153.923 232.003 153.921 231.367ZM35.0324 229.725C38.2471 228.312 44.7338 226.213 47.2485 225.771C48.0575 225.629 48.8047 225.375 48.9089 225.206C49.1074 224.885 43.0032 223.645 41.2324 223.646C40.2149 223.647 40.2005 223.604 39.2901 217.934C38.7377 214.493 38.1797 212.147 37.8872 212.034C37.2899 211.805 30.4293 213.931 27.8657 215.139L25.99 216.024L29.479 218.63L32.968 221.237L32.4429 224.494C31.4821 230.454 31.4109 231.074 31.6871 231.074C31.8381 231.074 33.3434 230.467 35.0324 229.725ZM135.791 224.608C140.406 223.704 140.731 223.623 140.541 223.433C140.271 223.163 130.472 221.228 130.101 221.371C129.922 221.44 130.022 222.332 130.323 223.354C130.96 225.515 131.053 225.537 135.791 224.608ZM54.9069 223.308C55.7416 220.524 55.8979 220.579 50.2754 221.657C47.4788 222.193 45.1908 222.754 45.1908 222.905C45.1908 223.145 52.1666 224.654 53.8313 224.774C54.2322 224.803 54.6151 224.281 54.9069 223.308ZM145.1 217.49C145.683 214.533 146.19 211.78 146.228 211.37C146.308 210.485 146.676 210.6 135.54 208.018C106.69 201.331 84.169 200.285 60.4445 204.532C53.6074 205.756 39.8522 209.006 39.2346 209.543C38.9975 209.75 40.7606 222.042 41.0775 222.392C41.1339 222.454 45.1186 221.71 49.9323 220.738C67.927 217.104 77.519 216.02 91.5385 216.036C105.74 216.052 117.334 217.452 136.517 221.469C139.959 222.19 143.06 222.799 143.407 222.822C143.914 222.856 144.25 221.798 145.1 217.49Z" fill="black"/>
<path d="M42.7907 219.737L40.8901 212.352L43.6773 211.635C44.1679 211.509 44.5485 211.436 44.8194 211.417C45.1978 211.384 45.5315 211.421 45.8204 211.527C46.1094 211.634 46.3679 211.821 46.5961 212.088C46.8242 212.355 46.9854 212.672 47.0796 213.038C47.2413 213.666 47.1781 214.249 46.8902 214.786C46.6023 215.324 45.9358 215.727 44.8908 215.996L42.9958 216.483L43.7684 219.485L42.7907 219.737ZM42.7715 215.612L44.6817 215.121C45.3134 214.958 45.7317 214.725 45.9366 214.422C46.1416 214.119 46.1892 213.754 46.0794 213.327C45.9999 213.018 45.8537 212.774 45.6409 212.594C45.428 212.414 45.1848 212.322 44.9113 212.317C44.7354 212.316 44.4257 212.372 43.9822 212.486L42.0922 212.972L42.7715 215.612Z" fill="black"/>
<path d="M49.7138 217.991L48.1021 210.537L53.4939 209.373L53.6841 210.252L49.2791 211.204L49.7727 213.486L53.898 212.595L54.0871 213.47L49.9618 214.361L50.5104 216.898L55.0884 215.909L55.2786 216.788L49.7138 217.991Z" fill="black"/>
<path d="M56.6198 216.538L55.2769 209.032L56.2707 208.854L57.4551 215.475L61.1538 214.813L61.3123 215.699L56.6198 216.538Z" fill="black"/>
<path d="M62.5251 215.503L61.4536 207.953L66.9153 207.179L67.0417 208.07L62.5796 208.702L62.9078 211.015L67.0865 210.422L67.2122 211.308L63.0335 211.9L63.3982 214.47L68.0355 213.813L68.1619 214.704L62.5251 215.503Z" fill="black"/>
<path d="M69.5252 214.526L68.7881 206.936L70.3006 206.79L72.6199 211.989C72.8342 212.474 72.9914 212.836 73.0915 213.077C73.1511 212.793 73.2463 212.374 73.3774 211.822L74.6827 206.365L76.0346 206.233L76.7717 213.823L75.8031 213.917L75.1861 207.565L73.5965 214.131L72.69 214.219L69.8663 207.971L70.4938 214.432L69.5252 214.526Z" fill="black"/>
<path d="M78.3674 213.723L77.9639 206.108L80.8221 205.957C81.4042 205.926 81.8751 205.978 82.2349 206.114C82.5947 206.249 82.8827 206.472 83.0989 206.782C83.3151 207.091 83.4325 207.421 83.451 207.771C83.4683 208.096 83.3961 208.408 83.2347 208.704C83.0732 209.001 82.8187 209.247 82.4713 209.443C82.9392 209.553 83.3057 209.765 83.5706 210.077C83.8356 210.39 83.9798 210.767 84.0033 211.211C84.0222 211.567 83.9644 211.903 83.83 212.217C83.6955 212.532 83.5218 212.778 83.3089 212.956C83.0959 213.134 82.8246 213.274 82.4947 213.377C82.1649 213.479 81.7575 213.543 81.2724 213.569L78.3674 213.723ZM79.1416 209.254L80.789 209.167C81.2359 209.144 81.5548 209.097 81.7457 209.028C81.9981 208.938 82.1845 208.802 82.3051 208.618C82.4257 208.435 82.4789 208.21 82.4647 207.943C82.4513 207.69 82.3789 207.471 82.2475 207.285C82.116 207.099 81.9358 206.977 81.7069 206.918C81.4779 206.859 81.0897 206.844 80.5423 206.873L79.0197 206.953L79.1416 209.254ZM79.328 212.771L81.2248 212.67C81.5505 212.653 81.7785 212.629 81.9089 212.598C82.1388 212.544 82.3291 212.464 82.4799 212.359C82.6307 212.254 82.7514 212.106 82.842 211.915C82.9327 211.725 82.9716 211.508 82.9587 211.266C82.9437 210.982 82.8579 210.739 82.7013 210.537C82.5446 210.336 82.335 210.199 82.0724 210.128C81.8098 210.057 81.436 210.034 80.951 210.06L79.1892 210.153L79.328 212.771Z" fill="black"/>
<path d="M84.6821 213.388L87.5021 205.721L88.5896 205.706L91.8214 213.285L90.6715 213.302L89.7484 211.005L86.5586 211.051L85.7541 213.373L84.6821 213.388ZM86.8382 210.225L89.4244 210.188L88.5979 208.088C88.3458 207.45 88.1578 206.926 88.0339 206.515C87.9438 207.005 87.8138 207.492 87.6438 207.977L86.8382 210.225Z" fill="black"/>
<path d="M92.6289 213.301L92.8203 205.678L93.8556 205.704L97.7112 211.789L97.8616 205.804L98.8292 205.828L98.6378 213.451L97.6025 213.425L93.747 207.335L93.5966 213.325L92.6289 213.301Z" fill="black"/>
<path d="M104.1 210.777L104.16 209.885L107.385 210.095L107.196 212.918C106.675 213.28 106.144 213.542 105.605 213.706C105.065 213.87 104.519 213.933 103.965 213.896C103.217 213.846 102.549 213.641 101.959 213.28C101.369 212.919 100.939 212.426 100.668 211.799C100.397 211.173 100.286 210.486 100.336 209.739C100.386 208.998 100.587 208.318 100.94 207.696C101.293 207.075 101.77 206.628 102.373 206.356C102.975 206.083 103.655 205.972 104.413 206.023C104.964 206.06 105.455 206.182 105.888 206.39C106.321 206.598 106.653 206.87 106.885 207.205C107.116 207.54 107.28 207.968 107.378 208.489L106.452 208.677C106.364 208.282 106.243 207.968 106.088 207.735C105.933 207.503 105.702 207.309 105.396 207.155C105.09 207.001 104.745 206.911 104.361 206.885C103.9 206.854 103.498 206.898 103.152 207.015C102.807 207.133 102.524 207.299 102.303 207.514C102.082 207.728 101.905 207.969 101.772 208.234C101.547 208.692 101.416 209.196 101.379 209.746C101.334 210.424 101.413 210.999 101.616 211.472C101.819 211.944 102.136 212.306 102.568 212.557C103 212.808 103.467 212.951 103.969 212.984C104.405 213.013 104.836 212.958 105.263 212.818C105.689 212.678 106.016 212.52 106.244 212.344L106.338 210.927L104.1 210.777Z" fill="black"/>
<path d="M111.544 214.411L112.473 206.842L115.081 207.161C115.67 207.234 116.115 207.325 116.416 207.435C116.838 207.588 117.186 207.814 117.46 208.113C117.818 208.499 118.064 208.967 118.198 209.516C118.331 210.065 118.357 210.677 118.274 211.352C118.204 211.927 118.074 212.428 117.885 212.855C117.697 213.283 117.479 213.629 117.234 213.894C116.988 214.16 116.73 214.36 116.46 214.497C116.19 214.633 115.873 214.723 115.509 214.765C115.146 214.808 114.735 214.801 114.277 214.745L111.544 214.411ZM112.656 213.64L114.273 213.838C114.772 213.899 115.17 213.901 115.465 213.843C115.761 213.785 116.003 213.682 116.192 213.534C116.459 213.325 116.683 213.029 116.865 212.644C117.047 212.259 117.173 211.781 117.243 211.21C117.34 210.418 117.285 209.794 117.077 209.337C116.869 208.88 116.588 208.557 116.234 208.366C115.978 208.23 115.552 208.126 114.956 208.053L113.365 207.858L112.656 213.64Z" fill="black"/>
<path d="M119.006 213.175L119.925 213.191C119.86 213.771 119.907 214.182 120.066 214.424C120.225 214.666 120.474 214.813 120.814 214.866C121.064 214.905 121.289 214.881 121.489 214.794C121.688 214.707 121.837 214.571 121.937 214.384C122.036 214.198 122.119 213.889 122.186 213.457L122.99 208.266L123.988 208.42L123.192 213.555C123.094 214.186 122.942 214.662 122.736 214.985C122.53 215.307 122.247 215.534 121.888 215.664C121.529 215.794 121.127 215.825 120.681 215.756C120.019 215.653 119.542 215.385 119.25 214.95C118.957 214.515 118.876 213.924 119.006 213.175Z" fill="black"/>
<path d="M123.625 216.067L127.895 209.102L128.964 209.3L130.645 217.366L129.514 217.157L129.06 214.724L125.923 214.143L124.679 216.262L123.625 216.067ZM126.36 213.388L128.903 213.859L128.505 211.638C128.383 210.963 128.301 210.412 128.261 209.984C128.076 210.447 127.853 210.9 127.591 211.342L126.36 213.388Z" fill="black"/>
<path d="M131.393 215.328L132.309 215.397C132.211 215.972 132.234 216.385 132.378 216.636C132.523 216.887 132.764 217.048 133.099 217.12C133.347 217.174 133.573 217.163 133.777 217.088C133.981 217.013 134.138 216.885 134.248 216.705C134.358 216.524 134.459 216.221 134.55 215.793L135.655 210.657L136.642 210.869L135.549 215.95C135.415 216.573 135.236 217.04 135.011 217.35C134.787 217.66 134.492 217.87 134.126 217.979C133.76 218.089 133.356 218.096 132.915 218.001C132.261 217.861 131.8 217.565 131.533 217.114C131.266 216.663 131.22 216.068 131.393 215.328Z" fill="black"/>
<path d="M135.835 218.483L140.49 211.769L141.547 212.027L142.772 220.175L141.655 219.902L141.338 217.448L138.239 216.692L136.877 218.737L135.835 218.483ZM138.717 215.962L141.229 216.575L140.957 214.335C140.873 213.654 140.823 213.099 140.806 212.671C140.596 213.123 140.347 213.562 140.061 213.988L138.717 215.962Z" fill="black"/>
</svg>
